<svg xmlns="http://www.w3.org/2000/svg" width="1024" height="1024" fill="none"><path fill="#002A4A" fill-rule="evenodd" d="M512 194.5c23 0 52.29 10.345 70.537 29.181 15.317 15.81 20.626 28.731 28.775 70.036 5.032 25.506 7.324 36.279 8.593 36.279 5.436 3.624 112.124-108.529 121.476-117.459 23.961-22.882 64.69-64.108 73.643-74.541 17.992-20.967 28.622-35.641 37.467-51.722 3.339-6.07 6.348-11.797 8.95-18.278 8.851-22.039 11.242-25.004 20.163-24.996 8.074.007 13.784 5.612 15.758 15.471.553 2.764 1.667 12.225 2.474 21.025 5.113 55.755.987 96.493-13.729 135.55-4.191 11.126-10.354 22.442-15.607 32.95.213 1.282 1.227 2.993 2.654 5.9 1.576 7.201 1.746 8.086 2.579 18.6-.177 13.458-4.298 35.5-9.329 54.5-9.665 36.5-18.102 42.968-40.223 67.728-2.953 3.305-3.778 5.051-3.78 8-.007 11.611-10.557 37.207-23.193 56.272-7.45 11.241-28.287 32.765-40.304 41.633-28.493 23.305-120.499 44.483-136.499 52.367-34.5 17-40.963 40.572-50.946 73.754 3.318 59.344 100.554 94.085 129.984 140.864 2.772 4.407 2.587 10.996-.432 15.44-13.724 20.196-41.11 14.076-60.758 10.535 1.025 16.292 16.69 31.386 21.651 47.407 5.462 17.637 7.267 34.438 5.505 40.982-1.721 6.39-7.184 11.532-13.203 12.427-9.562 1.421-25.421-3.386-39.627-12.011-5.578-3.386-16.675-12.898-23.734-17.398-1.941 11-2.68 20.817-2.977 22.872-4.586 31.708-19.423 61.391-39.19 78.403-11.196 9.636-18.32 10.128-26.354 1.82-4.42-5.095-9.293-14.402-10.324-16.091V194.5Z" clip-rule="evenodd"/><path fill="#fff" d="M605.698 366.282c8.456 59.081 7.265 93.59-14.457 159.718C568.38 579.936 533 646 512 646V220.5c18 .5 27.778 3.74 38.664 8.665 25.654 11.608 37.349 35.282 44.577 76.335 3.393 17.256 8.45 37.42 10.457 60.782Z"/><path fill="#00ACF1" d="M605.698 366.282c8.456 59.081 7.265 93.59-14.457 159.718C568.38 579.936 533 646 512 646V350v58.5c0 18.5 78.916 50.29 80.741-19.5 2-5.5 13.5-12.5 12.957-22.718Z"/><path fill="#002A4A" fill-rule="evenodd" d="M512.002 194.496c-23 0-52.291 10.345-70.538 29.181-15.317 15.81-20.625 28.731-28.774 70.036-5.032 25.506-7.324 36.279-8.593 36.279-5.436 3.624-112.125-108.529-121.477-117.459-23.961-22.882-64.69-64.108-73.643-74.541-17.992-20.967-28.622-35.641-37.467-51.722-3.338-6.07-6.347-11.797-8.95-18.278-8.851-22.039-11.242-25.004-20.163-24.996-8.074.007-13.784 5.612-15.758 15.471-.553 2.764-1.667 12.225-2.474 21.025-5.113 55.755-.987 96.493 13.729 135.55 4.192 11.126 10.354 22.442 15.608 32.95-.213 1.282-1.227 2.993-2.655 5.9-1.576 7.201-1.745 8.087-2.579 18.6.177 13.458 4.298 35.5 9.329 54.5 9.665 36.5 18.103 42.968 40.223 67.728 2.953 3.305 3.778 5.051 3.78 8 .007 11.611 10.557 37.207 23.193 56.272 7.45 11.241 28.287 32.765 40.304 41.633 28.493 23.305 120.5 44.483 136.5 52.367 34.5 17 40.963 40.572 50.946 73.754-3.319 59.344-100.554 94.085-129.985 140.864-2.772 4.407-2.587 10.996.432 15.44 13.725 20.196 41.11 14.076 60.758 10.535-1.024 16.292-16.689 31.386-21.651 47.407-5.462 17.637-7.267 34.438-5.505 40.982 1.721 6.39 7.184 11.532 13.203 12.427 9.562 1.421 25.422-3.386 39.628-12.011 5.578-3.386 16.674-12.898 23.733-17.398 1.941 11 2.681 20.817 2.978 22.872 4.586 31.708 19.423 61.391 39.19 78.403 11.196 9.636 18.319 10.128 26.353 1.82 4.42-5.095 9.294-14.402 10.325-16.091v-757.5Z" clip-rule="evenodd"/><path fill="#fff" d="M418.303 366.278c-8.455 59.081-7.264 93.59 14.457 159.718 22.861 53.936 58.242 120 79.242 120v-425.5c-18 .5-27.779 3.74-38.665 8.665-25.653 11.608-37.348 35.282-44.577 76.335-3.392 17.256-8.45 37.42-10.457 60.782Z"/><path fill="#00ACF1" d="M418.303 366.278c-8.455 59.081-7.264 93.59 14.457 159.718 22.861 53.936 58.242 120 79.242 120v-296 58.5c0 18.5-78.916 50.29-80.742-19.5-2-5.5-13.5-12.5-12.957-22.718Z"/><path fill="url(#a)" stroke="#016592" d="M504.5 719c-5.509-2.428-8.569-4.426-14-8.5-10.735 44.716-17.013 68.855-28.5 113-4.418 21.261-5.174 32.843-4 53 6.416 46.136 14.171 55.939 28.5 71.5 5.756-26.022 8.097-41.629 10.5-71.5 2.831-60.8 4.527-95.675 7.5-157.5Z"/><path fill="url(#b)" stroke="#016592" d="M443 806c-20.716 36.873-33.923 52.76-63.5 63 5.479-27.814 19.739-56.653 56.5-121.5 12.38-24.197 19.381-37.9 31.5-61.5 4.115 5.812 7.81 9.571 11.5 13.5-12.888 46.72-20.81 69.362-36 106.5Z"/><path fill="url(#c)" stroke="#016592" d="M376.5 746 347 772c20.86 3.727 30.972 2.322 46-7.5 13.877-11.508 21.074-19.35 33-35.5 12.159-20.514 18.281-30.671 32-55-2.778-2.825-4.417-4.672-7.5-8.5-9.649 10.956-17.655 19.891-24.5 27-25.247 29.335-35.794 39.844-49.263 53.263l-.237.237Z"/><path fill="url(#d)" stroke="#016592" d="M517.5 719.5c5.509-2.428 8.569-4.426 14-8.5 10.735 44.716 17.013 68.855 28.5 113 4.418 21.261 5.174 32.843 4 53-6.416 46.136-14.171 55.939-28.5 71.5-5.756-26.022-8.097-41.629-10.5-71.5-2.831-60.8-4.527-95.675-7.5-157.5Z"/><path fill="url(#e)" stroke="#016592" d="M579 806.5c20.716 36.873 33.923 52.76 63.5 63-5.479-27.814-19.739-56.653-56.5-121.5-12.38-24.197-19.381-37.9-31.5-61.5-4.115 5.812-7.81 9.571-11.5 13.5 12.888 46.72 20.81 69.362 36 106.5Z"/><path fill="url(#f)" stroke="#016592" d="m645.5 746.5 29.5 26c-20.86 3.727-30.972 2.322-46-7.5-13.877-11.508-21.074-19.35-33-35.5-12.159-20.514-18.281-30.671-32-55 2.778-2.825 4.417-4.672 7.5-8.5 9.649 10.956 17.655 19.891 24.5 27 25.247 29.335 35.794 39.844 49.263 53.263l.237.237Z"/><path fill="#0077BA" stroke="#0194E5" stroke-width="2" d="M866.333 129.219c-1.999 37.771-6.338 69.867-24.127 100.352-18.3 31.362-50.91 61.143-110.185 93.552l-.247.134-.139.242c-2.327 4.018-3.93 7.271-4.45 10.523-.53 3.306.071 6.507 1.911 10.405l.048.102.07.089c2.313 2.944 4.534 4.959 7.472 6.26 2.911 1.289 6.435 1.835 11.276 2.021l.245.009.222-.104c39.232-18.629 60.121-32.574 92.532-63.92-6.447 34.743-17.083 60.703-40.507 82.013-24.153 21.975-62.005 39.103-123.215 55.637l-.195.054-.16.124c-5.453 4.263-7.144 10.711-5.697 17.96.365 3.101 1.886 5.468 4.486 7.221 2.565 1.729 6.156 2.847 10.664 3.593l.091.016.092-.002c22.184-.429 48.204-9.794 96.253-31.876-15.012 28.47-34.559 47.694-61.585 62.072-27.561 14.662-62.925 24.297-109.274 33.502 8.12-28.17 11.986-44.526 15.579-75.081l.008-.065-.001-.066-.013-.946c-.213-15.777-.425-31.738 1.499-43.377 1.824-11.028 3.964-16.851 5.462-21.347.341-1.022 1.853-4.183 4.346-8.666a223.412 223.412 0 0 1 9.945-16.151c8.161-12.077 18.95-25.446 30.323-33.172l.062-.042.055-.051c22.476-20.795 41.553-39.62 59.471-57.394 17.921-17.777 34.677-34.498 52.531-51.108l.012-.011.013-.013c24.375-24.286 49.603-48.702 75.127-82.489ZM156.167 129.219c1.999 37.771 6.338 69.867 24.127 100.352 18.3 31.362 50.91 61.143 110.185 93.552l.247.134.139.242c2.327 4.018 3.93 7.271 4.45 10.523.53 3.306-.071 6.507-1.911 10.405l-.048.102-.07.089c-2.313 2.944-4.534 4.959-7.472 6.26-2.911 1.289-6.435 1.835-11.276 2.021l-.245.009-.222-.104c-39.232-18.629-60.121-32.574-92.532-63.92 6.446 34.743 17.083 60.703 40.507 82.013 24.153 21.975 62.005 39.103 123.215 55.637l.195.054.16.124c5.453 4.263 7.143 10.711 5.697 17.96-.365 3.101-1.886 5.468-4.486 7.221-2.565 1.729-6.156 2.847-10.664 3.593l-.091.016-.092-.002c-22.185-.429-48.204-9.794-96.253-31.876 15.012 28.47 34.559 47.694 61.585 62.072 27.561 14.662 62.925 24.297 109.274 33.502-8.12-28.17-11.986-44.526-15.579-75.081l-.008-.065.001-.066.013-.946c.213-15.777.425-31.738-1.499-43.377-1.824-11.028-3.964-16.851-5.462-21.347-.341-1.022-1.853-4.183-4.346-8.666a223.412 223.412 0 0 0-9.945-16.151c-8.161-12.077-18.95-25.446-30.323-33.172l-.062-.042-.055-.051c-22.476-20.795-41.553-39.62-59.471-57.394-17.922-17.777-34.677-34.498-52.531-51.108l-.012-.011-.013-.013c-24.375-24.286-49.603-48.702-75.127-82.489Z"/><path fill="#00A9F0" stroke="#02C8FA" stroke-width="2" d="M745 353.5c-20.5 11-50.4 40.184-65 71 44.256-8.76 65.954-17.679 102-37 44.747-32.563 52.89-56.086 59.5-100.5-17.675 17.06-35.865 32.726-54 43.5-16.455 10.732-32.605 17.691-42.5 23ZM277.5 353.5c20.5 11 50.4 40.184 65 71-44.256-8.76-65.954-17.679-102-37-44.747-32.563-52.89-56.086-59.5-100.5 17.675 17.06 35.865 32.726 54 43.5 16.455 10.732 32.605 17.691 42.5 23Z"/><path fill="#092C47" stroke="#000" d="M459 286.5c-6.874 0-12.5 5.626-12.5 12.5s5.626 12.5 12.5 12.5 12.5-5.626 12.5-12.5-5.626-12.5-12.5-12.5ZM564 286.5c6.874 0 12.5 5.626 12.5 12.5s-5.626 12.5-12.5 12.5-12.5-5.626-12.5-12.5 5.626-12.5 12.5-12.5Z"/><path fill="#fff" fill-rule="evenodd" d="M563 297c1.65 0 3-1.35 3-3s-1.35-3-3-3-3 1.35-3 3 1.35 3 3 3ZM459 297c1.65 0 3-1.35 3-3s-1.35-3-3-3-3 1.35-3 3 1.35 3 3 3Z" clip-rule="evenodd"/><path fill="#0C2D47" stroke="#051328" d="M512 294.5c2.237 0 3.792.107 5.285.459 1.493.352 2.952.957 4.989 1.987 3.769 1.907 6.163 3.748 7.945 6.151 1.789 2.413 2.989 5.431 4.302 9.753.986 3.243 1.522 5.566 1.69 8.215.168 2.659-.034 5.666-.554 10.28-1.762 15.635-6.408 32.265-12.321 44.133-2.522 5.061-4.831 9.364-6.816 12.397-.994 1.518-1.894 2.698-2.687 3.493-.817.82-1.424 1.132-1.833 1.132-.38 0-.96-.254-1.741-.891-.76-.619-1.633-1.536-2.584-2.708-1.901-2.34-4.071-5.641-6.236-9.454-4.329-7.627-8.597-17.234-10.611-25.169-1.707-6.725-2.807-15.075-3.183-22.763-.378-7.705-.024-14.676 1.137-18.671 2.075-7.137 5.052-12.397 11.945-15.899 3.671-1.865 6.831-2.445 11.273-2.445Z"/><path fill="#FDAD29" stroke="#FFE31F" d="M528.433 333.901C524.739 356.927 521.634 367.332 512 383c-10-16.231-14.377-27.305-17.567-49.099 5.595-5.475 10.411-6.97 17.567-7.401 8.597-.054 11.384 1.841 16.433 7.401Z"/><path fill="#0088CB" stroke="#06B0F9" d="M528.933 324.401c-5.043-3.759-9.415-4.49-16.933-5.401-7.776 1.1-12.167 2.21-18.067 5.401.75-16.933 5.567-23.901 18.067-23.901s18.168 8.685 16.933 23.901Z"/><path fill="#000" stroke="#06B0F9" d="M502.933 307.401c.3 0 .673.11 1.082.332.404.22.815.534 1.183.903.369.368.683.779.903 1.183.222.409.332.782.332 1.082 0 1.374-1.126 2.5-2.5 2.5-.301 0-.673-.109-1.082-.332a5.29 5.29 0 0 1-1.184-.902 5.29 5.29 0 0 1-.902-1.184c-.223-.409-.332-.781-.332-1.082 0-1.374 1.126-2.5 2.5-2.5ZM520.933 307.401c-.301 0-.673.11-1.082.332-.405.22-.816.534-1.184.903a5.309 5.309 0 0 0-.902 1.183c-.223.409-.332.782-.332 1.082 0 1.374 1.126 2.5 2.5 2.5.3 0 .673-.109 1.082-.332.404-.22.815-.534 1.183-.902.369-.368.683-.779.903-1.184.222-.409.332-.781.332-1.082 0-1.374-1.126-2.5-2.5-2.5Z"/><path fill="#00A9F1" stroke="#028EEB" d="M445.142 333.009c4.156-2.151 8.713-1.859 11.03.458.838.838 1.281 1.507 1.497 2.445.196.853.212 1.956.089 3.647l-.062.762c-.292 3.378-1.892 8.158-4.08 12.757-2.187 4.596-4.923 8.934-7.437 11.448-1.717 1.716-2.863 2.695-3.962 3.257-1.076.549-2.144.717-3.749.717-2.62 0-4.579-.706-6.424-2.296-1.241-1.069-1.849-1.753-2.178-2.757-.343-1.047-.398-2.481-.351-5.106.086-4.881 1.828-10.1 4.645-14.666 2.817-4.566 6.686-8.442 10.982-10.666ZM572.457 331.502c2.285.06 4.88.993 7.482 2.655 5.202 3.323 10.304 9.478 12.839 16.903 1.623 4.757 1.507 9.149.109 12.322-1.389 3.152-4.043 5.118-7.613 5.118-2.66 0-5.628-1.602-8.496-4.55-2.857-2.937-5.556-7.155-7.674-12.242-2.229-5.355-3.442-8.977-3.775-11.671-.329-2.652.197-4.376 1.46-5.981 1.432-1.82 3.401-2.615 5.668-2.554Z"/><path fill="#0B2D49" stroke="#040C16" d="M450.458 382.5c1.338 0 2.973.93 4.431 2.478 1.442 1.53 2.622 3.576 3.083 5.626.884 3.934.263 7.94-1.297 10.949-1.566 3.019-4.02 4.947-6.774 4.947-1.819 0-3.376-.939-4.603-2.513-1.231-1.579-2.103-3.773-2.521-6.181-.839-4.846.195-10.318 3.51-13.177a11.552 11.552 0 0 1 2.294-1.522c.8-.4 1.479-.607 1.877-.607ZM568.808 385.204c2.145-2.145 4.243-2.863 6.039-2.444 1.808.421 3.502 2.034 4.734 4.981 2.193 5.25 1.503 10.931-.624 14.595-1.064 1.831-2.46 3.116-3.985 3.631-1.5.506-3.201.293-4.969-1.016-2.886-2.136-4.511-5.747-4.742-9.518-.23-3.77.941-7.623 3.547-10.229ZM470.837 397.328c2.223-2.222 4.923-2.371 7.201-1.045 2.305 1.343 4.22 4.232 4.662 8.151.475 4.21-.045 7.491-1.356 9.699-1.291 2.176-3.382 3.367-6.231 3.367-2.138 0-3.692-.659-4.796-1.988-1.125-1.355-1.839-3.471-2.13-6.496-.579-6.025.224-9.262 2.65-11.688ZM547.68 395.658l.5.036c4.295.369 7.05 4.645 7.625 9.576.573 4.92-1.083 10.082-5.169 12.031-.812.387-1.415.664-1.912.838-.491.174-.843.235-1.154.214-.633-.041-1.238-.417-2.573-1.405-2.594-1.919-4.185-5.309-4.571-8.951-.386-3.64.441-7.439 2.566-10.14.821-1.044 1.453-1.611 2.176-1.914.636-.266 1.395-.349 2.512-.285Z"/><defs><linearGradient id="a" x1="498" x2="473.5" y1="716" y2="932.5" gradientUnits="userSpaceOnUse"><stop stop-color="#007CC2"/><stop offset="1" stop-color="#16B6FF"/></linearGradient><linearGradient id="b" x1="473" x2="388" y1="694" y2="870.5" gradientUnits="userSpaceOnUse"><stop stop-color="#007CC2"/><stop offset="1" stop-color="#16B6FF"/></linearGradient><linearGradient id="c" x1="454.5" x2="357" y1="669" y2="778.5" gradientUnits="userSpaceOnUse"><stop stop-color="#007CC2"/><stop offset="1" stop-color="#16B6FF"/></linearGradient><linearGradient id="d" x1="524" x2="548.5" y1="716.5" y2="933" gradientUnits="userSpaceOnUse"><stop stop-color="#007CC2"/><stop offset="1" stop-color="#16B6FF"/></linearGradient><linearGradient id="e" x1="549" x2="634" y1="694.5" y2="871" gradientUnits="userSpaceOnUse"><stop stop-color="#007CC2"/><stop offset="1" stop-color="#16B6FF"/></linearGradient><linearGradient id="f" x1="567.5" x2="665" y1="669.5" y2="779" gradientUnits="userSpaceOnUse"><stop stop-color="#007CC2"/><stop offset="1" stop-color="#16B6FF"/></linearGradient></defs></svg>