<svg width="1024" height="1024" viewBox="0 0 1024 1024" fill="none" xmlns="http://www.w3.org/2000/svg">
<path fill-rule="evenodd" clip-rule="evenodd" d="M512 194.5C535 194.5 564.29 204.845 582.537 223.681C597.854 239.491 603.163 252.412 611.312 293.717C616.344 319.223 618.636 329.996 619.905 329.996C625.341 333.62 732.029 221.467 741.381 212.537C765.342 189.655 806.071 148.429 815.024 137.996C833.016 117.029 843.646 102.355 852.491 86.274C855.83 80.2045 858.839 74.4767 861.441 67.996C870.292 45.957 872.683 42.992 881.604 43C889.678 43.007 895.388 48.612 897.362 58.471C897.915 61.235 899.029 70.696 899.836 79.496C904.949 135.251 900.823 175.989 886.107 215.046C881.916 226.172 875.753 237.488 870.5 247.996C870.713 249.278 871.727 250.989 873.154 253.896C874.73 261.097 874.9 261.982 875.733 272.496C875.556 285.954 871.435 307.996 866.404 326.996C856.739 363.496 848.302 369.964 826.181 394.724C823.228 398.029 822.403 399.775 822.401 402.724C822.394 414.335 811.844 439.931 799.208 458.996C791.758 470.237 770.921 491.761 758.904 500.629C730.411 523.934 638.405 545.112 622.405 552.996C587.905 569.996 581.442 593.568 571.459 626.75C574.777 686.094 672.013 720.835 701.443 767.614C704.215 772.021 704.03 778.61 701.011 783.054C687.287 803.25 659.901 797.13 640.253 793.589C641.278 809.881 656.943 824.975 661.904 840.996C667.366 858.633 669.171 875.434 667.409 881.978C665.688 888.368 660.225 893.51 654.206 894.405C644.644 895.826 628.785 891.019 614.579 882.394C609.001 879.008 597.904 869.496 590.845 864.996C588.904 875.996 588.165 885.813 587.868 887.868C583.282 919.576 568.445 949.259 548.678 966.271C537.482 975.907 530.358 976.399 522.324 968.091C517.904 962.996 513.031 953.689 512 952L512 194.5Z" fill="#002A4A"/>
<path d="M605.698 366.282C614.154 425.363 612.963 459.872 591.241 526C568.38 579.936 533 646 512 646L512 350V220.5C530 221 539.778 224.24 550.664 229.165C576.318 240.773 588.013 264.447 595.241 305.5C598.634 322.756 603.691 342.92 605.698 366.282Z" fill="white"/>
<path d="M605.698 366.282C614.154 425.363 612.963 459.872 591.241 526C568.38 579.936 533 646 512 646L512 350L512 408.5C512 427 590.916 458.79 592.741 389C594.741 383.5 606.241 376.5 605.698 366.282Z" fill="#00ACF1"/>
<path fill-rule="evenodd" clip-rule="evenodd" d="M512.002 194.496C489.002 194.496 459.711 204.841 441.464 223.677C426.147 239.487 420.839 252.408 412.69 293.713C407.658 319.219 405.366 329.992 404.097 329.992C398.661 333.616 291.972 221.463 282.62 212.533C258.659 189.651 217.93 148.425 208.977 137.992C190.985 117.025 180.355 102.351 171.51 86.27C168.172 80.2005 165.163 74.4728 162.56 67.992C153.709 45.953 151.318 42.988 142.397 42.996C134.323 43.003 128.613 48.608 126.639 58.467C126.086 61.231 124.972 70.692 124.165 79.492C119.052 135.247 123.178 175.985 137.894 215.042C142.086 226.168 148.248 237.484 153.502 247.992C153.289 249.274 152.275 250.985 150.847 253.892C149.271 261.093 149.102 261.979 148.268 272.492C148.445 285.95 152.566 307.992 157.597 326.992C167.262 363.492 175.7 369.96 197.82 394.72C200.773 398.025 201.598 399.771 201.6 402.72C201.607 414.331 212.157 439.927 224.793 458.992C232.243 470.233 253.08 491.757 265.097 500.625C293.59 523.93 385.597 545.108 401.597 552.992C436.097 569.992 442.56 593.564 452.543 626.746C449.224 686.09 351.989 720.831 322.558 767.61C319.786 772.017 319.971 778.606 322.99 783.05C336.715 803.246 364.1 797.126 383.748 793.585C382.724 809.877 367.059 824.971 362.097 840.992C356.635 858.629 354.83 875.43 356.592 881.974C358.313 888.364 363.776 893.506 369.795 894.401C379.357 895.822 395.217 891.015 409.423 882.39C415.001 879.004 426.097 869.492 433.156 864.992C435.097 875.992 435.837 885.809 436.134 887.864C440.72 919.572 455.557 949.255 475.324 966.267C486.52 975.903 493.643 976.395 501.677 968.087C506.097 962.992 510.971 953.685 512.002 951.996L512.002 194.496Z" fill="#002A4A"/>
<path d="M418.303 366.278C409.848 425.359 411.039 459.868 432.76 525.996C455.621 579.932 491.002 645.996 512.002 645.996L512.002 349.996V220.496C494.002 220.996 484.223 224.236 473.337 229.161C447.684 240.769 435.989 264.443 428.76 305.496C425.368 322.752 420.31 342.916 418.303 366.278Z" fill="white"/>
<path d="M418.303 366.278C409.848 425.359 411.039 459.868 432.76 525.996C455.621 579.932 491.002 645.996 512.002 645.996L512.002 349.996L512.002 408.496C512.002 426.996 433.086 458.786 431.26 388.996C429.26 383.496 417.76 376.496 418.303 366.278Z" fill="#00ACF1"/>
<path d="M504.5 719C498.991 716.572 495.931 714.574 490.5 710.5C479.765 755.216 473.487 779.355 462 823.5C457.582 844.761 456.826 856.343 458 876.5C464.416 922.636 472.171 932.439 486.5 948C492.256 921.978 494.597 906.371 497 876.5C499.831 815.7 501.527 780.825 504.5 719Z" fill="url(#paint0_linear_5_109)" stroke="#016592"/>
<path d="M443 806C422.284 842.873 409.077 858.76 379.5 869C384.979 841.186 399.239 812.347 436 747.5C448.38 723.303 455.381 709.6 467.5 686C471.615 691.812 475.31 695.571 479 699.5C466.112 746.22 458.19 768.862 443 806Z" fill="url(#paint1_linear_5_109)" stroke="#016592"/>
<path d="M376.5 746L347 772C367.86 775.727 377.972 774.322 393 764.5C406.877 752.992 414.074 745.15 426 729C438.159 708.486 444.281 698.329 458 674C455.222 671.175 453.583 669.328 450.5 665.5C440.851 676.456 432.845 685.391 426 692.5C400.753 721.835 390.206 732.344 376.737 745.763L376.5 746Z" fill="url(#paint2_linear_5_109)" stroke="#016592"/>
<path d="M517.5 719.5C523.009 717.072 526.069 715.074 531.5 711C542.235 755.716 548.513 779.855 560 824C564.418 845.261 565.174 856.843 564 877C557.584 923.136 549.829 932.939 535.5 948.5C529.744 922.478 527.403 906.871 525 877C522.169 816.2 520.473 781.325 517.5 719.5Z" fill="url(#paint3_linear_5_109)" stroke="#016592"/>
<path d="M579 806.5C599.716 843.373 612.923 859.26 642.5 869.5C637.021 841.686 622.761 812.847 586 748C573.62 723.803 566.619 710.1 554.5 686.5C550.385 692.312 546.69 696.071 543 700C555.888 746.72 563.81 769.362 579 806.5Z" fill="url(#paint4_linear_5_109)" stroke="#016592"/>
<path d="M645.5 746.5L675 772.5C654.14 776.227 644.028 774.822 629 765C615.123 753.492 607.926 745.65 596 729.5C583.841 708.986 577.719 698.829 564 674.5C566.778 671.675 568.417 669.828 571.5 666C581.149 676.956 589.155 685.891 596 693C621.247 722.335 631.794 732.844 645.263 746.263L645.5 746.5Z" fill="url(#paint5_linear_5_109)" stroke="#016592"/>
<path d="M866.333 129.219C864.334 166.99 859.995 199.086 842.206 229.571C823.906 260.933 791.296 290.714 732.021 323.123L731.774 323.257L731.635 323.499C729.308 327.517 727.705 330.77 727.185 334.022C726.655 337.328 727.256 340.529 729.096 344.427L729.144 344.529L729.214 344.618C731.527 347.562 733.748 349.577 736.686 350.878C739.597 352.167 743.121 352.713 747.962 352.899L748.207 352.908L748.429 352.804C787.661 334.175 808.55 320.23 840.961 288.884C834.514 323.627 823.878 349.587 800.454 370.897C776.301 392.872 738.449 410 677.239 426.534L677.044 426.588L676.884 426.712C671.431 430.975 669.74 437.423 671.187 444.672C671.552 447.773 673.073 450.14 675.673 451.893C678.238 453.622 681.829 454.74 686.337 455.486L686.428 455.502L686.52 455.5C708.704 455.071 734.724 445.706 782.773 423.624C767.761 452.094 748.214 471.318 721.188 485.696C693.627 500.358 658.263 509.993 611.914 519.198C620.034 491.028 623.9 474.672 627.493 444.117L627.501 444.052L627.5 443.986L627.487 443.04C627.274 427.263 627.062 411.302 628.986 399.663C630.81 388.635 632.95 382.812 634.448 378.316C634.789 377.294 636.301 374.133 638.794 369.65C641.268 365.202 644.668 359.524 648.739 353.499C656.9 341.422 667.689 328.053 679.062 320.327L679.124 320.285L679.179 320.234C701.655 299.439 720.732 280.614 738.65 262.84C756.571 245.063 773.327 228.342 791.181 211.732L791.193 211.721L791.206 211.708C815.581 187.422 840.809 163.006 866.333 129.219Z" fill="#0077BA" stroke="#0194E5" stroke-width="2"/>
<path d="M156.167 129.219C158.166 166.99 162.505 199.086 180.294 229.571C198.594 260.933 231.204 290.714 290.479 323.123L290.726 323.257L290.865 323.499C293.192 327.517 294.795 330.77 295.315 334.022C295.845 337.328 295.244 340.529 293.404 344.427L293.356 344.529L293.286 344.618C290.973 347.562 288.752 349.577 285.814 350.878C282.903 352.167 279.379 352.713 274.538 352.899L274.293 352.908L274.071 352.804C234.839 334.175 213.95 320.23 181.539 288.884C187.985 323.627 198.622 349.587 222.046 370.897C246.199 392.872 284.051 410 345.261 426.534L345.456 426.588L345.616 426.712C351.069 430.975 352.759 437.423 351.313 444.672C350.948 447.773 349.427 450.14 346.827 451.893C344.262 453.622 340.671 454.74 336.163 455.486L336.072 455.502L335.98 455.5C313.795 455.071 287.776 445.706 239.727 423.624C254.739 452.094 274.286 471.318 301.312 485.696C328.873 500.358 364.237 509.993 410.586 519.198C402.466 491.028 398.6 474.672 395.007 444.117L394.999 444.052L395 443.986L395.013 443.04C395.226 427.263 395.438 411.302 393.514 399.663C391.69 388.635 389.55 382.812 388.052 378.316C387.711 377.294 386.199 374.133 383.706 369.65C381.232 365.202 377.832 359.524 373.761 353.499C365.6 341.422 354.811 328.053 343.438 320.327L343.376 320.285L343.321 320.234C320.845 299.439 301.768 280.614 283.85 262.84C265.928 245.063 249.173 228.342 231.319 211.732L231.307 211.721L231.294 211.708C206.919 187.422 181.691 163.006 156.167 129.219Z" fill="#0077BA" stroke="#0194E5" stroke-width="2"/>
<path d="M745 353.5C724.5 364.5 694.6 393.684 680 424.5C724.256 415.74 745.954 406.821 782 387.5C826.747 354.937 834.89 331.414 841.5 287C823.825 304.06 805.635 319.726 787.5 330.5C771.045 341.232 754.895 348.191 745 353.5Z" fill="#00A9F0" stroke="#02C8FA" stroke-width="2"/>
<path d="M277.5 353.5C298 364.5 327.9 393.684 342.5 424.5C298.244 415.74 276.546 406.821 240.5 387.5C195.753 354.937 187.61 331.414 181 287C198.675 304.06 216.865 319.726 235 330.5C251.455 341.232 267.605 348.191 277.5 353.5Z" fill="#00A9F0" stroke="#02C8FA" stroke-width="2"/>
<path d="M459 286.5C452.126 286.5 446.5 292.126 446.5 299C446.5 305.874 452.126 311.5 459 311.5C465.874 311.5 471.5 305.874 471.5 299C471.5 292.126 465.874 286.5 459 286.5Z" fill="#092C47" stroke="black"/>
<path d="M564 286.5C570.874 286.5 576.5 292.126 576.5 299C576.5 305.874 570.874 311.5 564 311.5C557.126 311.5 551.5 305.874 551.5 299C551.5 292.126 557.126 286.5 564 286.5Z" fill="#092C47" stroke="black"/>
<path fill-rule="evenodd" clip-rule="evenodd" d="M563 297C564.65 297 566 295.65 566 294C566 292.35 564.65 291 563 291C561.35 291 560 292.35 560 294C560 295.65 561.35 297 563 297Z" fill="white"/>
<path fill-rule="evenodd" clip-rule="evenodd" d="M459 297C460.65 297 462 295.65 462 294C462 292.35 460.65 291 459 291C457.35 291 456 292.35 456 294C456 295.65 457.35 297 459 297Z" fill="white"/>
<path d="M512 294.5C514.237 294.5 515.792 294.607 517.285 294.959C518.778 295.311 520.237 295.916 522.274 296.946C526.043 298.853 528.437 300.694 530.219 303.097C532.008 305.51 533.208 308.528 534.521 312.85C535.507 316.093 536.043 318.416 536.211 321.065C536.379 323.724 536.177 326.731 535.657 331.345C533.895 346.98 529.249 363.61 523.336 375.478C520.814 380.539 518.505 384.842 516.52 387.875C515.526 389.393 514.626 390.573 513.833 391.368C513.016 392.188 512.409 392.5 512 392.5C511.62 392.5 511.04 392.246 510.259 391.609C509.499 390.99 508.626 390.073 507.675 388.901C505.774 386.561 503.604 383.26 501.439 379.447C497.11 371.82 492.842 362.213 490.828 354.278C489.121 347.553 488.021 339.203 487.645 331.515C487.267 323.81 487.621 316.839 488.782 312.844C490.857 305.707 493.834 300.447 500.727 296.945C504.398 295.08 507.558 294.5 512 294.5Z" fill="#0C2D47" stroke="#051328"/>
<path d="M528.433 333.901C524.739 356.927 521.634 367.332 512 383C502 366.769 497.623 355.695 494.433 333.901C500.028 328.426 504.844 326.931 512 326.5C520.597 326.446 523.384 328.341 528.433 333.901Z" fill="#FDAD29" stroke="#FFE31F"/>
<path d="M528.933 324.401C523.89 320.642 519.518 319.911 512 319C504.224 320.1 499.833 321.21 493.933 324.401C494.683 307.468 499.5 300.5 512 300.5C524.5 300.5 530.168 309.185 528.933 324.401Z" fill="#0088CB" stroke="#06B0F9"/>
<path d="M502.933 307.401C503.233 307.401 503.606 307.511 504.015 307.733C504.419 307.953 504.83 308.267 505.198 308.636C505.567 309.004 505.881 309.415 506.101 309.819C506.323 310.228 506.433 310.601 506.433 310.901C506.433 312.275 505.307 313.401 503.933 313.401C503.632 313.401 503.26 313.292 502.851 313.069C502.446 312.849 502.035 312.535 501.667 312.167C501.299 311.799 500.985 311.388 500.765 310.983C500.542 310.574 500.433 310.202 500.433 309.901C500.433 308.527 501.559 307.401 502.933 307.401Z" fill="black" stroke="#06B0F9"/>
<path d="M520.933 307.401C520.632 307.401 520.26 307.511 519.851 307.733C519.446 307.953 519.035 308.267 518.667 308.636C518.299 309.004 517.985 309.415 517.765 309.819C517.542 310.228 517.433 310.601 517.433 310.901C517.433 312.275 518.559 313.401 519.933 313.401C520.233 313.401 520.606 313.292 521.015 313.069C521.419 312.849 521.83 312.535 522.198 312.167C522.567 311.799 522.881 311.388 523.101 310.983C523.323 310.574 523.433 310.202 523.433 309.901C523.433 308.527 522.307 307.401 520.933 307.401Z" fill="black" stroke="#06B0F9"/>
<path d="M445.142 333.009C449.298 330.858 453.855 331.15 456.172 333.467C457.01 334.305 457.453 334.974 457.669 335.912C457.865 336.765 457.881 337.868 457.758 339.559L457.696 340.321C457.404 343.699 455.804 348.479 453.616 353.078C451.429 357.674 448.693 362.012 446.179 364.526C444.462 366.242 443.316 367.221 442.217 367.783C441.141 368.332 440.073 368.5 438.468 368.5C435.848 368.5 433.889 367.794 432.044 366.204C430.803 365.135 430.195 364.451 429.866 363.447C429.523 362.4 429.468 360.966 429.515 358.341C429.601 353.46 431.343 348.241 434.16 343.675C436.977 339.109 440.846 335.233 445.142 333.009Z" fill="#00A9F1" stroke="#028EEB"/>
<path d="M572.457 331.502C574.742 331.562 577.337 332.495 579.939 334.157C585.141 337.48 590.243 343.635 592.778 351.06C594.401 355.817 594.285 360.209 592.887 363.382C591.498 366.534 588.844 368.5 585.274 368.5C582.614 368.5 579.646 366.898 576.778 363.95C573.921 361.013 571.222 356.795 569.104 351.708C566.875 346.353 565.662 342.731 565.329 340.037C565 337.385 565.526 335.661 566.789 334.056C568.221 332.236 570.19 331.441 572.457 331.502Z" fill="#00A9F1" stroke="#028EEB"/>
<path d="M450.458 382.5C451.796 382.5 453.431 383.43 454.889 384.978C456.331 386.508 457.511 388.554 457.972 390.604C458.856 394.538 458.235 398.544 456.675 401.553C455.109 404.572 452.655 406.5 449.901 406.5C448.082 406.5 446.525 405.561 445.298 403.987C444.067 402.408 443.195 400.214 442.777 397.806C441.938 392.96 442.972 387.488 446.287 384.629C446.971 384.039 447.8 383.498 448.581 383.107C449.381 382.707 450.06 382.5 450.458 382.5Z" fill="#0B2D49" stroke="#040C16"/>
<path d="M568.808 385.204C570.953 383.059 573.051 382.341 574.847 382.76C576.655 383.181 578.349 384.794 579.581 387.741C581.774 392.991 581.084 398.672 578.957 402.336C577.893 404.167 576.497 405.452 574.972 405.967C573.472 406.473 571.771 406.26 570.003 404.951C567.117 402.815 565.492 399.204 565.261 395.433C565.031 391.663 566.202 387.81 568.808 385.204Z" fill="#0B2D49" stroke="#040C16"/>
<path d="M470.837 397.328C473.06 395.106 475.76 394.957 478.038 396.283C480.343 397.626 482.258 400.515 482.7 404.434C483.175 408.644 482.655 411.925 481.344 414.133C480.053 416.309 477.962 417.5 475.113 417.5C472.975 417.5 471.421 416.841 470.317 415.512C469.192 414.157 468.478 412.041 468.187 409.016C467.608 402.991 468.411 399.754 470.837 397.328Z" fill="#0B2D49" stroke="#040C16"/>
<path d="M547.68 395.658L548.18 395.694C552.475 396.063 555.23 400.339 555.805 405.27C556.378 410.19 554.722 415.352 550.636 417.301C549.824 417.688 549.221 417.965 548.724 418.139C548.233 418.313 547.881 418.374 547.57 418.353C546.937 418.312 546.332 417.936 544.997 416.948C542.403 415.029 540.812 411.639 540.426 407.997C540.04 404.357 540.867 400.558 542.992 397.857C543.813 396.813 544.445 396.246 545.168 395.943C545.804 395.677 546.563 395.594 547.68 395.658Z" fill="#0B2D49" stroke="#040C16"/>
<g filter="url(#filter0_d_5_109)">
<mask id="path-28-outside-1_5_109" maskUnits="userSpaceOnUse" x="270" y="563" width="484" height="110" fill="black">
<rect fill="white" x="270" y="563" width="484" height="110"/>
<path d="M395 576.25L380.375 662.875L344.875 663.625L337.25 618.75L329.625 660.375L294.125 661.625L279.375 576.25L310.375 573.5L316.625 625.375L325 573.5H349.375L359.125 626L364.125 573.5L395 576.25ZM472.812 657.625L441.812 661.625L438.062 647.5H423.812L420.688 661.625L388.812 658.5L413.688 575.25L448.438 573.5L472.812 657.625ZM435.812 628.375L431.062 606.625L426.438 628.375H435.812ZM547.375 602.75C547.375 606 547.083 608.958 546.5 611.625C545.958 614.25 545.083 616.667 543.875 618.875C542.667 621.083 541.104 623.125 539.188 625C537.271 626.875 534.958 628.667 532.25 630.375L547.125 656.875L519 662.375L509.375 635.75L501.625 636L500.5 662H473.625C473.833 652.5 474.021 643.042 474.188 633.625C474.396 624.208 474.625 614.75 474.875 605.25C474.958 600.458 475.042 595.708 475.125 591C475.208 586.292 475.375 581.542 475.625 576.75C478.542 575.667 481.417 574.771 484.25 574.062C487.083 573.354 489.917 572.812 492.75 572.438C495.625 572.021 498.521 571.75 501.438 571.625C504.396 571.458 507.417 571.375 510.5 571.375C515.25 571.375 519.833 572.042 524.25 573.375C528.708 574.667 532.646 576.625 536.062 579.25C539.479 581.875 542.208 585.146 544.25 589.062C546.333 592.979 547.375 597.542 547.375 602.75ZM519.375 604.75C519.375 603 519.125 601.396 518.625 599.938C518.167 598.479 517.458 597.229 516.5 596.188C515.583 595.104 514.417 594.271 513 593.688C511.625 593.062 510 592.75 508.125 592.75C507.292 592.75 506.479 592.812 505.688 592.938C504.896 593.021 504.125 593.167 503.375 593.375L502.375 616.625H503.875C505.667 616.625 507.479 616.396 509.312 615.938C511.188 615.479 512.854 614.771 514.312 613.812C515.812 612.854 517.021 611.625 517.938 610.125C518.896 608.625 519.375 606.833 519.375 604.75ZM624.5 640.75C624.5 644.208 623.854 647.188 622.562 649.688C621.312 652.188 619.625 654.312 617.5 656.062C615.375 657.812 612.917 659.25 610.125 660.375C607.375 661.458 604.5 662.312 601.5 662.938C598.5 663.562 595.479 663.979 592.438 664.188C589.438 664.396 586.625 664.5 584 664.5C581.417 664.5 578.729 664.396 575.938 664.188C573.188 664.021 570.438 663.708 567.688 663.25C564.938 662.792 562.229 662.188 559.562 661.438C556.896 660.646 554.375 659.667 552 658.5L551.875 578C554.208 577.042 556.688 576.188 559.312 575.438C561.938 574.646 564.604 574 567.312 573.5C570.062 572.958 572.792 572.562 575.5 572.312C578.208 572.021 580.833 571.875 583.375 571.875C586.333 571.875 589.312 572.062 592.312 572.438C595.354 572.812 598.271 573.438 601.062 574.312C603.854 575.188 606.458 576.333 608.875 577.75C611.292 579.125 613.396 580.833 615.188 582.875C617.021 584.917 618.438 587.292 619.438 590C620.479 592.708 621 595.833 621 599.375C621 601.708 620.667 603.896 620 605.938C619.333 607.979 618.375 609.812 617.125 611.438C615.875 613.062 614.354 614.458 612.562 615.625C610.771 616.75 608.75 617.583 606.5 618.125C609.208 618.833 611.667 619.875 613.875 621.25C616.125 622.625 618.021 624.292 619.562 626.25C621.146 628.208 622.354 630.417 623.188 632.875C624.062 635.333 624.5 637.958 624.5 640.75ZM592.75 605.125C592.75 603.917 592.5 602.896 592 602.062C591.5 601.188 590.875 600.479 590.125 599.938C589.417 599.396 588.625 599 587.75 598.75C586.917 598.5 586.167 598.375 585.5 598.375C584.667 598.375 583.854 598.5 583.062 598.75C582.271 599 581.5 599.292 580.75 599.625L580.375 613.5C581.333 613.5 582.521 613.417 583.938 613.25C585.354 613.083 586.708 612.729 588 612.188C589.333 611.604 590.458 610.771 591.375 609.688C592.292 608.562 592.75 607.042 592.75 605.125ZM583.875 625.5C582.667 625.5 581.5 625.625 580.375 625.875L580.125 640.125C580.75 640.25 581.354 640.375 581.938 640.5C582.562 640.583 583.167 640.625 583.75 640.625C584.625 640.625 585.583 640.542 586.625 640.375C587.667 640.167 588.646 639.792 589.562 639.25C590.479 638.667 591.229 637.896 591.812 636.938C592.438 635.979 592.75 634.708 592.75 633.125C592.75 631.542 592.438 630.25 591.812 629.25C591.229 628.25 590.5 627.479 589.625 626.938C588.75 626.354 587.792 625.979 586.75 625.812C585.708 625.604 584.75 625.5 583.875 625.5ZM682.812 627.375L680.188 655.125L627.562 659.25C627.812 644.708 628.083 630.25 628.375 615.875C628.708 601.5 629.104 587.042 629.562 572.5H662.062C661.104 581.625 660.188 590.75 659.312 599.875C658.438 608.958 657.812 618.125 657.438 627.375C659.396 627.458 661.333 627.5 663.25 627.5C665.167 627.5 667.104 627.5 669.062 627.5C671.396 627.5 673.688 627.479 675.938 627.438C678.188 627.396 680.479 627.375 682.812 627.375ZM744.938 572.875C744.688 576.792 744.458 580.667 744.25 584.5C744.042 588.333 743.771 592.208 743.438 596.125L716.938 597.5L716.312 605.375H734.938L733.562 624.75L714.812 625.375L714.188 634.5H729.688H740.688C740.438 639.083 740.167 643.646 739.875 648.188C739.625 652.688 739.396 657.208 739.188 661.75L685.312 663L687.312 572.875H744.938Z"/>
</mask>
<path d="M395 576.25L380.375 662.875L344.875 663.625L337.25 618.75L329.625 660.375L294.125 661.625L279.375 576.25L310.375 573.5L316.625 625.375L325 573.5H349.375L359.125 626L364.125 573.5L395 576.25ZM472.812 657.625L441.812 661.625L438.062 647.5H423.812L420.688 661.625L388.812 658.5L413.688 575.25L448.438 573.5L472.812 657.625ZM435.812 628.375L431.062 606.625L426.438 628.375H435.812ZM547.375 602.75C547.375 606 547.083 608.958 546.5 611.625C545.958 614.25 545.083 616.667 543.875 618.875C542.667 621.083 541.104 623.125 539.188 625C537.271 626.875 534.958 628.667 532.25 630.375L547.125 656.875L519 662.375L509.375 635.75L501.625 636L500.5 662H473.625C473.833 652.5 474.021 643.042 474.188 633.625C474.396 624.208 474.625 614.75 474.875 605.25C474.958 600.458 475.042 595.708 475.125 591C475.208 586.292 475.375 581.542 475.625 576.75C478.542 575.667 481.417 574.771 484.25 574.062C487.083 573.354 489.917 572.812 492.75 572.438C495.625 572.021 498.521 571.75 501.438 571.625C504.396 571.458 507.417 571.375 510.5 571.375C515.25 571.375 519.833 572.042 524.25 573.375C528.708 574.667 532.646 576.625 536.062 579.25C539.479 581.875 542.208 585.146 544.25 589.062C546.333 592.979 547.375 597.542 547.375 602.75ZM519.375 604.75C519.375 603 519.125 601.396 518.625 599.938C518.167 598.479 517.458 597.229 516.5 596.188C515.583 595.104 514.417 594.271 513 593.688C511.625 593.062 510 592.75 508.125 592.75C507.292 592.75 506.479 592.812 505.688 592.938C504.896 593.021 504.125 593.167 503.375 593.375L502.375 616.625H503.875C505.667 616.625 507.479 616.396 509.312 615.938C511.188 615.479 512.854 614.771 514.312 613.812C515.812 612.854 517.021 611.625 517.938 610.125C518.896 608.625 519.375 606.833 519.375 604.75ZM624.5 640.75C624.5 644.208 623.854 647.188 622.562 649.688C621.312 652.188 619.625 654.312 617.5 656.062C615.375 657.812 612.917 659.25 610.125 660.375C607.375 661.458 604.5 662.312 601.5 662.938C598.5 663.562 595.479 663.979 592.438 664.188C589.438 664.396 586.625 664.5 584 664.5C581.417 664.5 578.729 664.396 575.938 664.188C573.188 664.021 570.438 663.708 567.688 663.25C564.938 662.792 562.229 662.188 559.562 661.438C556.896 660.646 554.375 659.667 552 658.5L551.875 578C554.208 577.042 556.688 576.188 559.312 575.438C561.938 574.646 564.604 574 567.312 573.5C570.062 572.958 572.792 572.562 575.5 572.312C578.208 572.021 580.833 571.875 583.375 571.875C586.333 571.875 589.312 572.062 592.312 572.438C595.354 572.812 598.271 573.438 601.062 574.312C603.854 575.188 606.458 576.333 608.875 577.75C611.292 579.125 613.396 580.833 615.188 582.875C617.021 584.917 618.438 587.292 619.438 590C620.479 592.708 621 595.833 621 599.375C621 601.708 620.667 603.896 620 605.938C619.333 607.979 618.375 609.812 617.125 611.438C615.875 613.062 614.354 614.458 612.562 615.625C610.771 616.75 608.75 617.583 606.5 618.125C609.208 618.833 611.667 619.875 613.875 621.25C616.125 622.625 618.021 624.292 619.562 626.25C621.146 628.208 622.354 630.417 623.188 632.875C624.062 635.333 624.5 637.958 624.5 640.75ZM592.75 605.125C592.75 603.917 592.5 602.896 592 602.062C591.5 601.188 590.875 600.479 590.125 599.938C589.417 599.396 588.625 599 587.75 598.75C586.917 598.5 586.167 598.375 585.5 598.375C584.667 598.375 583.854 598.5 583.062 598.75C582.271 599 581.5 599.292 580.75 599.625L580.375 613.5C581.333 613.5 582.521 613.417 583.938 613.25C585.354 613.083 586.708 612.729 588 612.188C589.333 611.604 590.458 610.771 591.375 609.688C592.292 608.562 592.75 607.042 592.75 605.125ZM583.875 625.5C582.667 625.5 581.5 625.625 580.375 625.875L580.125 640.125C580.75 640.25 581.354 640.375 581.938 640.5C582.562 640.583 583.167 640.625 583.75 640.625C584.625 640.625 585.583 640.542 586.625 640.375C587.667 640.167 588.646 639.792 589.562 639.25C590.479 638.667 591.229 637.896 591.812 636.938C592.438 635.979 592.75 634.708 592.75 633.125C592.75 631.542 592.438 630.25 591.812 629.25C591.229 628.25 590.5 627.479 589.625 626.938C588.75 626.354 587.792 625.979 586.75 625.812C585.708 625.604 584.75 625.5 583.875 625.5ZM682.812 627.375L680.188 655.125L627.562 659.25C627.812 644.708 628.083 630.25 628.375 615.875C628.708 601.5 629.104 587.042 629.562 572.5H662.062C661.104 581.625 660.188 590.75 659.312 599.875C658.438 608.958 657.812 618.125 657.438 627.375C659.396 627.458 661.333 627.5 663.25 627.5C665.167 627.5 667.104 627.5 669.062 627.5C671.396 627.5 673.688 627.479 675.938 627.438C678.188 627.396 680.479 627.375 682.812 627.375ZM744.938 572.875C744.688 576.792 744.458 580.667 744.25 584.5C744.042 588.333 743.771 592.208 743.438 596.125L716.938 597.5L716.312 605.375H734.938L733.562 624.75L714.812 625.375L714.188 634.5H729.688H740.688C740.438 639.083 740.167 643.646 739.875 648.188C739.625 652.688 739.396 657.208 739.188 661.75L685.312 663L687.312 572.875H744.938Z" fill="#9BE7FF"/>
<path d="M395 576.25L402.888 577.582L404.329 569.049L395.71 568.282L395 576.25ZM380.375 662.875L380.544 670.873L387.161 670.733L388.263 664.207L380.375 662.875ZM344.875 663.625L336.988 664.965L338.144 671.769L345.044 671.623L344.875 663.625ZM337.25 618.75L345.137 617.41L329.381 617.309L337.25 618.75ZM329.625 660.375L329.907 668.37L336.335 668.144L337.494 661.816L329.625 660.375ZM294.125 661.625L286.242 662.987L287.43 669.866L294.407 669.62L294.125 661.625ZM279.375 576.25L278.668 568.281L270.012 569.049L271.492 577.612L279.375 576.25ZM310.375 573.5L318.318 572.543L317.39 564.846L309.668 565.531L310.375 573.5ZM316.625 625.375L308.682 626.332L324.523 626.65L316.625 625.375ZM325 573.5V565.5H318.188L317.102 572.225L325 573.5ZM349.375 573.5L357.241 572.039L356.026 565.5H349.375V573.5ZM359.125 626L351.259 627.461L367.089 626.758L359.125 626ZM364.125 573.5L364.835 565.532L356.915 564.826L356.161 572.742L364.125 573.5ZM395 576.25L387.112 574.918L372.487 661.543L380.375 662.875L388.263 664.207L402.888 577.582L395 576.25ZM380.375 662.875L380.206 654.877L344.706 655.627L344.875 663.625L345.044 671.623L380.544 670.873L380.375 662.875ZM344.875 663.625L352.762 662.285L345.137 617.41L337.25 618.75L329.363 620.09L336.988 664.965L344.875 663.625ZM337.25 618.75L329.381 617.309L321.756 658.934L329.625 660.375L337.494 661.816L345.119 620.191L337.25 618.75ZM329.625 660.375L329.343 652.38L293.843 653.63L294.125 661.625L294.407 669.62L329.907 668.37L329.625 660.375ZM294.125 661.625L302.008 660.263L287.258 574.888L279.375 576.25L271.492 577.612L286.242 662.987L294.125 661.625ZM279.375 576.25L280.082 584.219L311.082 581.469L310.375 573.5L309.668 565.531L278.668 568.281L279.375 576.25ZM310.375 573.5L302.432 574.457L308.682 626.332L316.625 625.375L324.568 624.418L318.318 572.543L310.375 573.5ZM316.625 625.375L324.523 626.65L332.898 574.775L325 573.5L317.102 572.225L308.727 624.1L316.625 625.375ZM325 573.5V581.5H349.375V573.5V565.5H325V573.5ZM349.375 573.5L341.509 574.961L351.259 627.461L359.125 626L366.991 624.539L357.241 572.039L349.375 573.5ZM359.125 626L367.089 626.758L372.089 574.258L364.125 573.5L356.161 572.742L351.161 625.242L359.125 626ZM364.125 573.5L363.415 581.468L394.29 584.218L395 576.25L395.71 568.282L364.835 565.532L364.125 573.5ZM472.812 657.625L473.836 665.559L483.094 664.365L480.496 655.399L472.812 657.625ZM441.812 661.625L434.08 663.678L435.88 670.457L442.836 669.559L441.812 661.625ZM438.062 647.5L445.795 645.447L444.216 639.5H438.062V647.5ZM423.812 647.5V639.5H417.389L416.001 645.772L423.812 647.5ZM420.688 661.625L419.907 669.587L426.966 670.279L428.499 663.353L420.688 661.625ZM388.812 658.5L381.147 656.21L378.367 665.514L388.032 666.462L388.812 658.5ZM413.688 575.25L413.285 567.26L407.64 567.544L406.022 572.96L413.688 575.25ZM448.438 573.5L456.121 571.274L454.359 565.192L448.035 565.51L448.438 573.5ZM435.812 628.375V636.375H445.748L443.628 626.668L435.812 628.375ZM431.062 606.625L438.878 604.918L423.237 604.961L431.062 606.625ZM426.438 628.375L418.612 626.711L416.557 636.375H426.438V628.375ZM472.812 657.625L471.789 649.691L440.789 653.691L441.812 661.625L442.836 669.559L473.836 665.559L472.812 657.625ZM441.812 661.625L449.545 659.572L445.795 645.447L438.062 647.5L430.33 649.553L434.08 663.678L441.812 661.625ZM438.062 647.5V639.5H423.812V647.5V655.5H438.062V647.5ZM423.812 647.5L416.001 645.772L412.876 659.897L420.688 661.625L428.499 663.353L431.624 649.228L423.812 647.5ZM420.688 661.625L421.468 653.663L389.593 650.538L388.812 658.5L388.032 666.462L419.907 669.587L420.688 661.625ZM388.812 658.5L396.478 660.79L421.353 577.54L413.688 575.25L406.022 572.96L381.147 656.21L388.812 658.5ZM413.688 575.25L414.09 583.24L448.84 581.49L448.438 573.5L448.035 565.51L413.285 567.26L413.688 575.25ZM448.438 573.5L440.754 575.726L465.129 659.851L472.812 657.625L480.496 655.399L456.121 571.274L448.438 573.5ZM435.812 628.375L443.628 626.668L438.878 604.918L431.062 606.625L423.247 608.332L427.997 630.082L435.812 628.375ZM431.062 606.625L423.237 604.961L418.612 626.711L426.438 628.375L434.263 630.039L438.888 608.289L431.062 606.625ZM426.438 628.375V636.375H435.812V628.375V620.375H426.438V628.375ZM546.5 611.625L538.685 609.915L538.675 609.962L538.665 610.008L546.5 611.625ZM532.25 630.375L527.982 623.609L521.554 627.663L525.274 634.291L532.25 630.375ZM547.125 656.875L548.66 664.726L559.515 662.604L554.101 652.959L547.125 656.875ZM519 662.375L511.477 665.095L513.807 671.542L520.535 670.226L519 662.375ZM509.375 635.75L516.898 633.03L514.923 627.567L509.117 627.754L509.375 635.75ZM501.625 636L501.367 628.004L493.953 628.243L493.632 635.654L501.625 636ZM500.5 662V670H508.161L508.493 662.346L500.5 662ZM473.625 662L465.627 661.825L465.448 670H473.625V662ZM474.188 633.625L466.189 633.448L466.189 633.466L466.189 633.483L474.188 633.625ZM474.875 605.25L482.872 605.46L482.873 605.425L482.874 605.389L474.875 605.25ZM475.625 576.75L472.84 569.251L467.91 571.082L467.636 576.333L475.625 576.75ZM492.75 572.438L493.8 580.368L493.849 580.362L493.897 580.355L492.75 572.438ZM501.438 571.625L501.78 579.618L501.834 579.615L501.887 579.612L501.438 571.625ZM524.25 573.375L521.938 581.034L521.981 581.047L522.024 581.059L524.25 573.375ZM536.062 579.25L531.189 585.594L536.062 579.25ZM544.25 589.062L537.156 592.76L537.171 592.79L537.187 592.819L544.25 589.062ZM518.625 599.938L510.993 602.336L511.024 602.435L511.057 602.532L518.625 599.938ZM516.5 596.188L510.393 601.355L510.5 601.482L510.613 601.604L516.5 596.188ZM513 593.688L509.69 600.97L509.821 601.03L509.954 601.085L513 593.688ZM505.688 592.938L506.525 600.894L506.731 600.872L506.935 600.84L505.688 592.938ZM503.375 593.375L501.234 585.667L495.632 587.223L495.382 593.031L503.375 593.375ZM502.375 616.625L494.382 616.281L494.024 624.625H502.375V616.625ZM509.312 615.938L507.413 608.166L507.393 608.171L507.372 608.176L509.312 615.938ZM514.312 613.812L510.005 607.071L509.962 607.099L509.919 607.127L514.312 613.812ZM517.938 610.125L511.196 605.818L511.153 605.885L511.111 605.953L517.938 610.125ZM547.375 602.75H539.375C539.375 605.53 539.125 607.905 538.685 609.915L546.5 611.625L554.315 613.335C555.042 610.012 555.375 606.47 555.375 602.75H547.375ZM546.5 611.625L538.665 610.008C538.273 611.906 537.66 613.567 536.857 615.035L543.875 618.875L550.893 622.715C552.506 619.767 553.643 616.594 554.335 613.242L546.5 611.625ZM543.875 618.875L536.857 615.035C536.052 616.506 534.982 617.923 533.593 619.281L539.188 625L544.782 630.719C547.226 628.327 549.282 625.66 550.893 622.715L543.875 618.875ZM539.188 625L533.593 619.281C532.149 620.694 530.302 622.146 527.982 623.609L532.25 630.375L536.518 637.141C539.615 635.188 542.392 633.056 544.782 630.719L539.188 625ZM532.25 630.375L525.274 634.291L540.149 660.791L547.125 656.875L554.101 652.959L539.226 626.459L532.25 630.375ZM547.125 656.875L545.59 649.024L517.465 654.524L519 662.375L520.535 670.226L548.66 664.726L547.125 656.875ZM519 662.375L526.523 659.655L516.898 633.03L509.375 635.75L501.852 638.47L511.477 665.095L519 662.375ZM509.375 635.75L509.117 627.754L501.367 628.004L501.625 636L501.883 643.996L509.633 643.746L509.375 635.75ZM501.625 636L493.632 635.654L492.507 661.654L500.5 662L508.493 662.346L509.618 636.346L501.625 636ZM500.5 662V654H473.625V662V670H500.5V662ZM473.625 662L481.623 662.175C481.832 652.664 482.019 643.195 482.186 633.767L474.188 633.625L466.189 633.483C466.022 642.889 465.835 652.336 465.627 661.825L473.625 662ZM474.188 633.625L482.186 633.802C482.394 624.397 482.623 614.949 482.872 605.46L474.875 605.25L466.878 605.04C466.627 614.551 466.398 624.02 466.189 633.448L474.188 633.625ZM474.875 605.25L482.874 605.389C482.957 600.598 483.04 595.849 483.124 591.142L475.125 591L467.126 590.858C467.043 595.568 466.96 600.318 466.876 605.111L474.875 605.25ZM475.125 591L483.124 591.142C483.205 586.527 483.369 581.869 483.614 577.167L475.625 576.75L467.636 576.333C467.381 581.215 467.211 586.057 467.126 590.858L475.125 591ZM475.625 576.75L478.41 584.249C481.068 583.262 483.661 582.456 486.19 581.824L484.25 574.062L482.31 566.301C479.172 567.086 476.015 568.071 472.84 569.251L475.625 576.75ZM484.25 574.062L486.19 581.824C488.737 581.187 491.273 580.703 493.8 580.368L492.75 572.438L491.7 564.507C488.561 564.922 485.43 565.521 482.31 566.301L484.25 574.062ZM492.75 572.438L493.897 580.355C496.504 579.977 499.131 579.731 501.78 579.618L501.438 571.625L501.095 563.632C497.91 563.769 494.746 564.065 491.603 564.52L492.75 572.438ZM501.438 571.625L501.887 579.612C504.69 579.454 507.561 579.375 510.5 579.375V571.375V563.375C507.273 563.375 504.102 563.462 500.988 563.638L501.438 571.625ZM510.5 571.375V579.375C514.49 579.375 518.293 579.933 521.938 581.034L524.25 573.375L526.562 565.716C521.374 564.15 516.01 563.375 510.5 563.375V571.375ZM524.25 573.375L522.024 581.059C525.598 582.095 528.622 583.622 531.189 585.594L536.062 579.25L540.936 572.906C536.669 569.628 531.818 567.239 526.476 565.691L524.25 573.375ZM536.062 579.25L531.189 585.594C533.658 587.491 535.639 589.85 537.156 592.76L544.25 589.062L551.344 585.365C548.778 580.442 545.301 576.259 540.936 572.906L536.062 579.25ZM544.25 589.062L537.187 592.819C538.556 595.393 539.375 598.624 539.375 602.75H547.375H555.375C555.375 596.46 554.111 590.565 551.313 585.306L544.25 589.062ZM519.375 604.75H527.375C527.375 602.235 527.015 599.741 526.193 597.343L518.625 599.938L511.057 602.532C511.235 603.051 511.375 603.765 511.375 604.75H519.375ZM518.625 599.938L526.257 597.539C525.475 595.05 524.204 592.746 522.387 590.771L516.5 596.188L510.613 601.604C510.712 601.712 510.859 601.909 510.993 602.336L518.625 599.938ZM516.5 596.188L522.607 591.02C520.798 588.882 518.55 587.321 516.046 586.29L513 593.688L509.954 601.085C510.283 601.22 510.368 601.326 510.393 601.355L516.5 596.188ZM513 593.688L516.31 586.405C513.677 585.207 510.874 584.75 508.125 584.75V592.75V600.75C509.126 600.75 509.573 600.918 509.69 600.97L513 593.688ZM508.125 592.75V584.75C506.89 584.75 505.66 584.843 504.44 585.035L505.688 592.938L506.935 600.84C507.298 600.782 507.693 600.75 508.125 600.75V592.75ZM505.688 592.938L504.85 584.981C503.628 585.11 502.42 585.337 501.234 585.667L503.375 593.375L505.516 601.083C505.83 600.996 506.164 600.932 506.525 600.894L505.688 592.938ZM503.375 593.375L495.382 593.031L494.382 616.281L502.375 616.625L510.368 616.969L511.368 593.719L503.375 593.375ZM502.375 616.625V624.625H503.875V616.625V608.625H502.375V616.625ZM503.875 616.625V624.625C506.356 624.625 508.82 624.307 511.253 623.699L509.312 615.938L507.372 608.176C506.139 608.485 504.978 608.625 503.875 608.625V616.625ZM509.312 615.938L511.212 623.709C513.881 623.056 516.408 622.008 518.706 620.498L514.312 613.812L509.919 607.127C509.301 607.533 508.494 607.902 507.413 608.166L509.312 615.938ZM514.312 613.812L518.62 620.554C521.13 618.95 523.205 616.847 524.764 614.297L517.938 610.125L511.111 605.953C510.836 606.403 510.495 606.758 510.005 607.071L514.312 613.812ZM517.938 610.125L524.679 614.432C526.591 611.44 527.375 608.095 527.375 604.75H519.375H511.375C511.375 605.572 511.201 605.81 511.196 605.818L517.938 610.125ZM622.562 649.688L615.455 646.015L615.431 646.062L615.407 646.11L622.562 649.688ZM610.125 660.375L613.057 667.818L613.086 667.807L613.115 667.795L610.125 660.375ZM592.438 664.188L591.891 656.206L591.883 656.207L592.438 664.188ZM575.938 664.188L576.533 656.21L576.477 656.206L576.421 656.202L575.938 664.188ZM559.562 661.438L557.286 669.107L557.341 669.123L557.397 669.139L559.562 661.438ZM552 658.5L544 658.512L544.008 663.487L548.473 665.68L552 658.5ZM551.875 578L548.836 570.6L543.867 572.641L543.875 578.012L551.875 578ZM559.312 575.438L561.51 583.13L561.566 583.114L561.622 583.097L559.312 575.438ZM567.312 573.5L568.765 581.367L568.812 581.358L568.859 581.349L567.312 573.5ZM575.5 572.312L576.235 580.279L576.296 580.273L576.357 580.267L575.5 572.312ZM592.312 572.438L591.32 580.376L591.334 580.377L592.312 572.438ZM608.875 577.75L604.829 584.652L604.874 584.678L604.919 584.703L608.875 577.75ZM615.188 582.875L609.174 588.152L609.205 588.186L609.235 588.22L615.188 582.875ZM619.438 590L611.933 592.771L611.951 592.822L611.971 592.872L619.438 590ZM612.562 615.625L616.817 622.4L616.873 622.365L616.928 622.329L612.562 615.625ZM606.5 618.125L604.628 610.347L604.476 625.865L606.5 618.125ZM613.875 621.25L609.647 628.041L609.675 628.059L609.703 628.076L613.875 621.25ZM619.562 626.25L613.277 631.198L613.309 631.239L613.341 631.28L619.562 626.25ZM623.188 632.875L615.611 635.443L615.63 635.501L615.651 635.558L623.188 632.875ZM592 602.062L585.054 606.032L585.096 606.105L585.14 606.178L592 602.062ZM590.125 599.938L585.265 606.292L585.352 606.359L585.441 606.423L590.125 599.938ZM587.75 598.75L585.451 606.413L585.502 606.428L585.552 606.442L587.75 598.75ZM580.75 599.625L577.501 592.315L572.889 594.364L572.753 599.409L580.75 599.625ZM580.375 613.5L572.378 613.284L572.156 621.5H580.375V613.5ZM588 612.188L591.094 619.565L591.15 619.541L591.207 619.517L588 612.188ZM591.375 609.688L597.482 614.855L597.53 614.798L597.577 614.741L591.375 609.688ZM580.375 625.875L578.64 618.066L572.487 619.433L572.376 625.735L580.375 625.875ZM580.125 640.125L572.126 639.985L572.009 646.66L578.556 647.97L580.125 640.125ZM581.938 640.5L580.261 648.322L580.569 648.388L580.88 648.43L581.938 640.5ZM586.625 640.375L587.889 648.275L588.042 648.25L588.194 648.22L586.625 640.375ZM589.562 639.25L593.632 646.137L593.746 646.07L593.858 645.999L589.562 639.25ZM591.812 636.938L585.112 632.567L585.044 632.672L584.979 632.778L591.812 636.938ZM591.812 629.25L584.902 633.281L584.964 633.386L585.029 633.49L591.812 629.25ZM589.625 626.938L585.187 633.594L585.3 633.669L585.414 633.74L589.625 626.938ZM586.75 625.812L585.181 633.657L585.333 633.688L585.486 633.712L586.75 625.812ZM624.5 640.75H616.5C616.5 643.219 616.041 644.881 615.455 646.015L622.562 649.688L629.67 653.36C631.667 649.494 632.5 645.198 632.5 640.75H624.5ZM622.562 649.688L615.407 646.11C614.65 647.624 613.662 648.86 612.414 649.887L617.5 656.062L622.586 662.238C625.588 659.765 627.975 656.751 629.718 653.265L622.562 649.688ZM617.5 656.062L612.414 649.887C610.976 651.071 609.239 652.107 607.135 652.955L610.125 660.375L613.115 667.795C616.594 666.393 619.774 664.554 622.586 662.238L617.5 656.062ZM610.125 660.375L607.193 652.932C604.88 653.843 602.441 654.57 599.868 655.106L601.5 662.938L603.132 670.769C606.559 670.055 609.87 669.074 613.057 667.818L610.125 660.375ZM601.5 662.938L599.868 655.106C597.224 655.656 594.566 656.023 591.891 656.206L592.438 664.188L592.984 672.169C596.392 671.935 599.776 671.469 603.132 670.769L601.5 662.938ZM592.438 664.188L591.883 656.207C589.042 656.404 586.416 656.5 584 656.5V664.5V672.5C586.834 672.5 589.833 672.388 592.992 672.168L592.438 664.188ZM584 664.5V656.5C581.631 656.5 579.143 656.404 576.533 656.21L575.938 664.188L575.342 672.165C578.316 672.387 581.202 672.5 584 672.5V664.5ZM575.938 664.188L576.421 656.202C573.953 656.053 571.481 655.772 569.003 655.359L567.688 663.25L566.372 671.141C569.394 671.645 572.422 671.989 575.454 672.173L575.938 664.188ZM567.688 663.25L569.003 655.359C566.538 654.948 564.113 654.407 561.728 653.736L559.562 661.438L557.397 669.139C560.345 669.968 563.337 670.635 566.372 671.141L567.688 663.25ZM559.562 661.438L561.839 653.768C559.581 653.098 557.48 652.279 555.527 651.32L552 658.5L548.473 665.68C551.27 667.055 554.211 668.194 557.286 669.107L559.562 661.438ZM552 658.5L560 658.488L559.875 577.988L551.875 578L543.875 578.012L544 658.512L552 658.5ZM551.875 578L554.914 585.4C556.951 584.563 559.148 583.805 561.51 583.13L559.312 575.438L557.115 567.745C554.227 568.57 551.465 569.52 548.836 570.6L551.875 578ZM559.312 575.438L561.622 583.097C563.964 582.39 566.345 581.814 568.765 581.367L567.312 573.5L565.86 565.633C562.864 566.186 559.911 566.901 557.003 567.778L559.312 575.438ZM567.312 573.5L568.859 581.349C571.349 580.859 573.807 580.503 576.235 580.279L575.5 572.312L574.765 564.346C571.776 564.622 568.776 565.058 565.766 565.651L567.312 573.5ZM575.5 572.312L576.357 580.267C578.801 580.003 581.139 579.875 583.375 579.875V571.875V563.875C580.528 563.875 577.616 564.038 574.643 564.358L575.5 572.312ZM583.375 571.875V579.875C585.994 579.875 588.642 580.041 591.32 580.376L592.312 572.438L593.305 564.499C589.983 564.084 586.672 563.875 583.375 563.875V571.875ZM592.312 572.438L591.334 580.377C593.918 580.696 596.361 581.222 598.67 581.946L601.062 574.312L603.455 566.679C600.181 565.653 596.79 564.929 593.291 564.498L592.312 572.438ZM601.062 574.312L598.67 581.946C600.91 582.648 602.957 583.554 604.829 584.652L608.875 577.75L612.921 570.848C609.96 569.113 606.798 567.727 603.455 566.679L601.062 574.312ZM608.875 577.75L604.919 584.703C606.58 585.648 607.984 586.795 609.174 588.152L615.188 582.875L621.201 577.598C618.807 574.871 616.003 572.602 612.831 570.797L608.875 577.75ZM615.188 582.875L609.235 588.22C610.358 589.471 611.264 590.961 611.933 592.771L619.438 590L626.942 587.229C625.611 583.622 623.683 580.363 621.14 577.53L615.188 582.875ZM619.438 590L611.971 592.872C612.592 594.486 613 596.605 613 599.375H621H629C629 595.061 628.367 590.93 626.904 587.128L619.438 590ZM621 599.375H613C613 600.938 612.778 602.281 612.395 603.454L620 605.938L627.605 608.421C628.555 605.511 629 602.479 629 599.375H621ZM620 605.938L612.395 603.454C611.997 604.673 611.454 605.689 610.784 606.56L617.125 611.438L623.466 616.315C625.296 613.936 626.67 611.285 627.605 608.421L620 605.938ZM617.125 611.438L610.784 606.56C610.108 607.439 609.265 608.226 608.197 608.921L612.562 615.625L616.928 622.329C619.444 620.691 621.642 618.686 623.466 616.315L617.125 611.438ZM612.562 615.625L608.308 608.85C607.317 609.473 606.113 609.99 604.628 610.347L606.5 618.125L608.372 625.903C611.387 625.177 614.225 624.027 616.817 622.4L612.562 615.625ZM606.5 618.125L604.476 625.865C606.465 626.385 608.171 627.122 609.647 628.041L613.875 621.25L618.103 614.459C615.162 612.628 611.952 611.282 608.524 610.385L606.5 618.125ZM613.875 621.25L609.703 628.076C611.19 628.985 612.356 630.029 613.277 631.198L619.562 626.25L625.848 621.302C623.686 618.554 621.06 616.265 618.047 614.424L613.875 621.25ZM619.562 626.25L613.341 631.28C614.313 632.481 615.071 633.851 615.611 635.443L623.188 632.875L630.764 630.307C629.637 626.982 627.979 623.935 625.784 621.22L619.562 626.25ZM623.188 632.875L615.651 635.558C616.198 637.096 616.5 638.808 616.5 640.75H624.5H632.5C632.5 637.108 631.927 633.57 630.724 630.192L623.188 632.875ZM592.75 605.125H600.75C600.75 602.817 600.268 600.293 598.86 597.947L592 602.062L585.14 606.178C584.732 605.499 584.75 605.016 584.75 605.125H592.75ZM592 602.062L598.946 598.093C597.931 596.317 596.564 594.719 594.809 593.452L590.125 599.938L585.441 606.423C585.325 606.339 585.229 606.249 585.158 606.168C585.087 606.088 585.056 606.035 585.054 606.032L592 602.062ZM590.125 599.938L594.985 593.583C593.464 592.42 591.766 591.577 589.948 591.058L587.75 598.75L585.552 606.442C585.528 606.435 585.481 606.419 585.422 606.39C585.363 606.36 585.309 606.326 585.265 606.292L590.125 599.938ZM587.75 598.75L590.049 591.087C588.683 590.678 587.141 590.375 585.5 590.375V598.375V606.375C585.417 606.375 585.354 606.371 585.312 606.367C585.271 606.364 585.249 606.36 585.247 606.36C585.246 606.36 585.262 606.362 585.297 606.371C585.332 606.379 585.383 606.392 585.451 606.413L587.75 598.75ZM585.5 598.375V590.375C583.853 590.375 582.227 590.624 580.653 591.121L583.062 598.75L585.472 606.379C585.477 606.377 585.48 606.376 585.481 606.376C585.482 606.376 585.482 606.376 585.482 606.376C585.482 606.376 585.483 606.376 585.485 606.375C585.487 606.375 585.492 606.375 585.5 606.375V598.375ZM583.062 598.75L580.653 591.121C579.579 591.461 578.528 591.858 577.501 592.315L580.75 599.625L583.999 606.935C584.472 606.725 584.962 606.539 585.472 606.379L583.062 598.75ZM580.75 599.625L572.753 599.409L572.378 613.284L580.375 613.5L588.372 613.716L588.747 599.841L580.75 599.625ZM580.375 613.5V621.5C581.757 621.5 583.279 621.383 584.872 621.195L583.938 613.25L583.003 605.305C581.762 605.451 580.91 605.5 580.375 605.5V613.5ZM583.938 613.25L584.872 621.195C587.018 620.943 589.1 620.401 591.094 619.565L588 612.188L584.906 604.81C584.317 605.057 583.691 605.224 583.003 605.305L583.938 613.25ZM588 612.188L591.207 619.517C593.63 618.457 595.756 616.895 597.482 614.855L591.375 609.688L585.268 604.52C585.161 604.646 585.037 604.752 584.793 604.858L588 612.188ZM591.375 609.688L597.577 614.741C599.984 611.787 600.75 608.288 600.75 605.125H592.75H584.75C584.75 605.457 584.709 605.519 584.747 605.395C584.79 605.249 584.911 604.956 585.173 604.634L591.375 609.688ZM583.875 625.5V617.5C582.111 617.5 580.361 617.683 578.64 618.066L580.375 625.875L582.11 633.684C582.639 633.567 583.222 633.5 583.875 633.5V625.5ZM580.375 625.875L572.376 625.735L572.126 639.985L580.125 640.125L588.124 640.265L588.374 626.015L580.375 625.875ZM580.125 640.125L578.556 647.97C579.148 648.088 579.716 648.206 580.261 648.322L581.938 640.5L583.614 632.678C582.992 632.544 582.352 632.412 581.694 632.28L580.125 640.125ZM581.938 640.5L580.88 648.43C581.828 648.556 582.786 648.625 583.75 648.625V640.625V632.625C583.547 632.625 583.297 632.61 582.995 632.57L581.938 640.5ZM583.75 640.625V648.625C585.124 648.625 586.511 648.495 587.889 648.275L586.625 640.375L585.361 632.475C584.655 632.588 584.126 632.625 583.75 632.625V640.625ZM586.625 640.375L588.194 648.22C590.119 647.835 591.944 647.135 593.632 646.137L589.562 639.25L585.493 632.363C585.348 632.448 585.214 632.499 585.056 632.53L586.625 640.375ZM589.562 639.25L593.858 645.999C595.842 644.737 597.447 643.066 598.646 641.097L591.812 636.938L584.979 632.778C584.986 632.766 585.017 632.719 585.079 632.656C585.141 632.592 585.208 632.539 585.267 632.501L589.562 639.25ZM591.812 636.938L598.513 641.308C600.253 638.64 600.75 635.685 600.75 633.125H592.75H584.75C584.75 633.402 584.721 633.459 584.747 633.355C584.775 633.24 584.867 632.942 585.112 632.567L591.812 636.938ZM592.75 633.125H600.75C600.75 630.541 600.245 627.647 598.596 625.01L591.812 629.25L585.029 633.49C584.832 633.176 584.76 632.934 584.74 632.85C584.722 632.776 584.75 632.85 584.75 633.125H592.75ZM591.812 629.25L598.723 625.219C597.563 623.232 595.957 621.448 593.836 620.135L589.625 626.938L585.414 633.74C585.246 633.635 585.112 633.521 585.016 633.419C584.924 633.321 584.892 633.263 584.902 633.281L591.812 629.25ZM589.625 626.938L594.063 620.281C592.228 619.058 590.187 618.261 588.014 617.913L586.75 625.812L585.486 633.712C585.456 633.707 585.402 633.695 585.335 633.669C585.268 633.643 585.217 633.614 585.187 633.594L589.625 626.938ZM586.75 625.812L588.319 617.968C586.866 617.677 585.374 617.5 583.875 617.5V625.5V633.5C584.126 633.5 584.551 633.531 585.181 633.657L586.75 625.812ZM682.812 627.375L690.777 628.128L691.605 619.375H682.812V627.375ZM680.188 655.125L680.813 663.101L687.518 662.575L688.152 655.878L680.188 655.125ZM627.562 659.25L619.564 659.112L619.412 667.913L628.188 667.226L627.562 659.25ZM628.375 615.875L620.377 615.69L620.377 615.701L620.377 615.713L628.375 615.875ZM629.562 572.5V564.5H621.811L621.566 572.248L629.562 572.5ZM662.062 572.5L670.019 573.336L670.947 564.5H662.062V572.5ZM659.312 599.875L667.276 600.642L667.276 600.639L659.312 599.875ZM657.438 627.375L649.444 627.051L649.121 635.028L657.097 635.368L657.438 627.375ZM682.812 627.375L674.848 626.622L672.223 654.372L680.188 655.125L688.152 655.878L690.777 628.128L682.812 627.375ZM680.188 655.125L679.562 647.149L626.937 651.274L627.562 659.25L628.188 667.226L680.813 663.101L680.188 655.125ZM627.562 659.25L635.561 659.388C635.811 644.854 636.082 630.404 636.373 616.037L628.375 615.875L620.377 615.713C620.085 630.096 619.814 644.563 619.564 659.112L627.562 659.25ZM628.375 615.875L636.373 616.06C636.706 601.708 637.101 587.272 637.559 572.752L629.562 572.5L621.566 572.248C621.107 586.812 620.711 601.292 620.377 615.69L628.375 615.875ZM629.562 572.5V580.5H662.062V572.5V564.5H629.562V572.5ZM662.062 572.5L654.106 571.664C653.145 580.813 652.226 589.962 651.349 599.111L659.312 599.875L667.276 600.639C668.149 591.538 669.063 582.437 670.019 573.336L662.062 572.5ZM659.312 599.875L651.349 599.108C650.46 608.341 649.825 617.655 649.444 627.051L657.438 627.375L665.431 627.699C665.8 618.595 666.415 609.576 667.276 600.642L659.312 599.875ZM657.438 627.375L657.097 635.368C659.166 635.456 661.217 635.5 663.25 635.5V627.5V619.5C661.449 619.5 659.625 619.461 657.778 619.382L657.438 627.375ZM663.25 627.5V635.5C663.254 635.5 663.257 635.5 663.261 635.5C663.265 635.5 663.269 635.5 663.272 635.5C663.276 635.5 663.28 635.5 663.284 635.5C663.287 635.5 663.291 635.5 663.295 635.5C663.299 635.5 663.302 635.5 663.306 635.5C663.31 635.5 663.314 635.5 663.317 635.5C663.321 635.5 663.325 635.5 663.329 635.5C663.332 635.5 663.336 635.5 663.34 635.5C663.344 635.5 663.347 635.5 663.351 635.5C663.355 635.5 663.359 635.5 663.362 635.5C663.366 635.5 663.37 635.5 663.374 635.5C663.377 635.5 663.381 635.5 663.385 635.5C663.389 635.5 663.392 635.5 663.396 635.5C663.4 635.5 663.404 635.5 663.407 635.5C663.411 635.5 663.415 635.5 663.419 635.5C663.422 635.5 663.426 635.5 663.43 635.5C663.434 635.5 663.437 635.5 663.441 635.5C663.445 635.5 663.448 635.5 663.452 635.5C663.456 635.5 663.46 635.5 663.463 635.5C663.467 635.5 663.471 635.5 663.475 635.5C663.478 635.5 663.482 635.5 663.486 635.5C663.49 635.5 663.493 635.5 663.497 635.5C663.501 635.5 663.505 635.5 663.508 635.5C663.512 635.5 663.516 635.5 663.52 635.5C663.523 635.5 663.527 635.5 663.531 635.5C663.535 635.5 663.538 635.5 663.542 635.5C663.546 635.5 663.55 635.5 663.553 635.5C663.557 635.5 663.561 635.5 663.565 635.5C663.568 635.5 663.572 635.5 663.576 635.5C663.58 635.5 663.583 635.5 663.587 635.5C663.591 635.5 663.595 635.5 663.598 635.5C663.602 635.5 663.606 635.5 663.61 635.5C663.613 635.5 663.617 635.5 663.621 635.5C663.625 635.5 663.628 635.5 663.632 635.5C663.636 635.5 663.64 635.5 663.643 635.5C663.647 635.5 663.651 635.5 663.655 635.5C663.658 635.5 663.662 635.5 663.666 635.5C663.67 635.5 663.673 635.5 663.677 635.5C663.681 635.5 663.685 635.5 663.688 635.5C663.692 635.5 663.696 635.5 663.7 635.5C663.703 635.5 663.707 635.5 663.711 635.5C663.715 635.5 663.718 635.5 663.722 635.5C663.726 635.5 663.73 635.5 663.733 635.5C663.737 635.5 663.741 635.5 663.745 635.5C663.748 635.5 663.752 635.5 663.756 635.5C663.76 635.5 663.763 635.5 663.767 635.5C663.771 635.5 663.775 635.5 663.778 635.5C663.782 635.5 663.786 635.5 663.79 635.5C663.793 635.5 663.797 635.5 663.801 635.5C663.805 635.5 663.808 635.5 663.812 635.5C663.816 635.5 663.82 635.5 663.823 635.5C663.827 635.5 663.831 635.5 663.835 635.5C663.838 635.5 663.842 635.5 663.846 635.5C663.85 635.5 663.853 635.5 663.857 635.5C663.861 635.5 663.865 635.5 663.868 635.5C663.872 635.5 663.876 635.5 663.88 635.5C663.883 635.5 663.887 635.5 663.891 635.5C663.895 635.5 663.898 635.5 663.902 635.5C663.906 635.5 663.91 635.5 663.913 635.5C663.917 635.5 663.921 635.5 663.925 635.5C663.928 635.5 663.932 635.5 663.936 635.5C663.94 635.5 663.943 635.5 663.947 635.5C663.951 635.5 663.955 635.5 663.958 635.5C663.962 635.5 663.966 635.5 663.97 635.5C663.973 635.5 663.977 635.5 663.981 635.5C663.985 635.5 663.988 635.5 663.992 635.5C663.996 635.5 664 635.5 664.004 635.5C664.007 635.5 664.011 635.5 664.015 635.5C664.019 635.5 664.022 635.5 664.026 635.5C664.03 635.5 664.034 635.5 664.037 635.5C664.041 635.5 664.045 635.5 664.049 635.5C664.052 635.5 664.056 635.5 664.06 635.5C664.064 635.5 664.067 635.5 664.071 635.5C664.075 635.5 664.079 635.5 664.082 635.5C664.086 635.5 664.09 635.5 664.094 635.5C664.097 635.5 664.101 635.5 664.105 635.5C664.109 635.5 664.112 635.5 664.116 635.5C664.12 635.5 664.124 635.5 664.127 635.5C664.131 635.5 664.135 635.5 664.139 635.5C664.142 635.5 664.146 635.5 664.15 635.5C664.154 635.5 664.157 635.5 664.161 635.5C664.165 635.5 664.169 635.5 664.173 635.5C664.176 635.5 664.18 635.5 664.184 635.5C664.188 635.5 664.191 635.5 664.195 635.5C664.199 635.5 664.203 635.5 664.206 635.5C664.21 635.5 664.214 635.5 664.218 635.5C664.221 635.5 664.225 635.5 664.229 635.5C664.233 635.5 664.236 635.5 664.24 635.5C664.244 635.5 664.248 635.5 664.251 635.5C664.255 635.5 664.259 635.5 664.263 635.5C664.266 635.5 664.27 635.5 664.274 635.5C664.278 635.5 664.281 635.5 664.285 635.5C664.289 635.5 664.293 635.5 664.297 635.5C664.3 635.5 664.304 635.5 664.308 635.5C664.312 635.5 664.315 635.5 664.319 635.5C664.323 635.5 664.327 635.5 664.33 635.5C664.334 635.5 664.338 635.5 664.342 635.5C664.345 635.5 664.349 635.5 664.353 635.5C664.357 635.5 664.36 635.5 664.364 635.5C664.368 635.5 664.372 635.5 664.375 635.5C664.379 635.5 664.383 635.5 664.387 635.5C664.39 635.5 664.394 635.5 664.398 635.5C664.402 635.5 664.406 635.5 664.409 635.5C664.413 635.5 664.417 635.5 664.421 635.5C664.424 635.5 664.428 635.5 664.432 635.5C664.436 635.5 664.439 635.5 664.443 635.5C664.447 635.5 664.451 635.5 664.454 635.5C664.458 635.5 664.462 635.5 664.466 635.5C664.469 635.5 664.473 635.5 664.477 635.5C664.481 635.5 664.484 635.5 664.488 635.5C664.492 635.5 664.496 635.5 664.5 635.5C664.503 635.5 664.507 635.5 664.511 635.5C664.515 635.5 664.518 635.5 664.522 635.5C664.526 635.5 664.53 635.5 664.533 635.5C664.537 635.5 664.541 635.5 664.545 635.5C664.548 635.5 664.552 635.5 664.556 635.5C664.56 635.5 664.563 635.5 664.567 635.5C664.571 635.5 664.575 635.5 664.579 635.5C664.582 635.5 664.586 635.5 664.59 635.5C664.594 635.5 664.597 635.5 664.601 635.5C664.605 635.5 664.609 635.5 664.612 635.5C664.616 635.5 664.62 635.5 664.624 635.5C664.627 635.5 664.631 635.5 664.635 635.5C664.639 635.5 664.642 635.5 664.646 635.5C664.65 635.5 664.654 635.5 664.658 635.5C664.661 635.5 664.665 635.5 664.669 635.5C664.673 635.5 664.676 635.5 664.68 635.5C664.684 635.5 664.688 635.5 664.691 635.5C664.695 635.5 664.699 635.5 664.703 635.5C664.706 635.5 664.71 635.5 664.714 635.5C664.718 635.5 664.722 635.5 664.725 635.5C664.729 635.5 664.733 635.5 664.737 635.5C664.74 635.5 664.744 635.5 664.748 635.5C664.752 635.5 664.755 635.5 664.759 635.5C664.763 635.5 664.767 635.5 664.77 635.5C664.774 635.5 664.778 635.5 664.782 635.5C664.786 635.5 664.789 635.5 664.793 635.5C664.797 635.5 664.801 635.5 664.804 635.5C664.808 635.5 664.812 635.5 664.816 635.5C664.819 635.5 664.823 635.5 664.827 635.5C664.831 635.5 664.834 635.5 664.838 635.5C664.842 635.5 664.846 635.5 664.85 635.5C664.853 635.5 664.857 635.5 664.861 635.5C664.865 635.5 664.868 635.5 664.872 635.5C664.876 635.5 664.88 635.5 664.883 635.5C664.887 635.5 664.891 635.5 664.895 635.5C664.898 635.5 664.902 635.5 664.906 635.5C664.91 635.5 664.914 635.5 664.917 635.5C664.921 635.5 664.925 635.5 664.929 635.5C664.932 635.5 664.936 635.5 664.94 635.5C664.944 635.5 664.947 635.5 664.951 635.5C664.955 635.5 664.959 635.5 664.963 635.5C664.966 635.5 664.97 635.5 664.974 635.5C664.978 635.5 664.981 635.5 664.985 635.5C664.989 635.5 664.993 635.5 664.996 635.5C665 635.5 665.004 635.5 665.008 635.5C665.012 635.5 665.015 635.5 665.019 635.5C665.023 635.5 665.027 635.5 665.03 635.5C665.034 635.5 665.038 635.5 665.042 635.5C665.045 635.5 665.049 635.5 665.053 635.5C665.057 635.5 665.061 635.5 665.064 635.5C665.068 635.5 665.072 635.5 665.076 635.5C665.079 635.5 665.083 635.5 665.087 635.5C665.091 635.5 665.094 635.5 665.098 635.5C665.102 635.5 665.106 635.5 665.11 635.5C665.113 635.5 665.117 635.5 665.121 635.5C665.125 635.5 665.128 635.5 665.132 635.5C665.136 635.5 665.14 635.5 665.143 635.5C665.147 635.5 665.151 635.5 665.155 635.5C665.159 635.5 665.162 635.5 665.166 635.5C665.17 635.5 665.174 635.5 665.177 635.5C665.181 635.5 665.185 635.5 665.189 635.5C665.192 635.5 665.196 635.5 665.2 635.5C665.204 635.5 665.208 635.5 665.211 635.5C665.215 635.5 665.219 635.5 665.223 635.5C665.226 635.5 665.23 635.5 665.234 635.5C665.238 635.5 665.241 635.5 665.245 635.5C665.249 635.5 665.253 635.5 665.257 635.5C665.26 635.5 665.264 635.5 665.268 635.5C665.272 635.5 665.275 635.5 665.279 635.5C665.283 635.5 665.287 635.5 665.291 635.5C665.294 635.5 665.298 635.5 665.302 635.5C665.306 635.5 665.309 635.5 665.313 635.5C665.317 635.5 665.321 635.5 665.324 635.5C665.328 635.5 665.332 635.5 665.336 635.5C665.34 635.5 665.343 635.5 665.347 635.5C665.351 635.5 665.355 635.5 665.358 635.5C665.362 635.5 665.366 635.5 665.37 635.5C665.374 635.5 665.377 635.5 665.381 635.5C665.385 635.5 665.389 635.5 665.392 635.5C665.396 635.5 665.4 635.5 665.404 635.5C665.408 635.5 665.411 635.5 665.415 635.5C665.419 635.5 665.423 635.5 665.426 635.5C665.43 635.5 665.434 635.5 665.438 635.5C665.441 635.5 665.445 635.5 665.449 635.5C665.453 635.5 665.457 635.5 665.46 635.5C665.464 635.5 665.468 635.5 665.472 635.5C665.475 635.5 665.479 635.5 665.483 635.5C665.487 635.5 665.491 635.5 665.494 635.5C665.498 635.5 665.502 635.5 665.506 635.5C665.509 635.5 665.513 635.5 665.517 635.5C665.521 635.5 665.525 635.5 665.528 635.5C665.532 635.5 665.536 635.5 665.54 635.5C665.543 635.5 665.547 635.5 665.551 635.5C665.555 635.5 665.559 635.5 665.562 635.5C665.566 635.5 665.57 635.5 665.574 635.5C665.577 635.5 665.581 635.5 665.585 635.5C665.589 635.5 665.592 635.5 665.596 635.5C665.6 635.5 665.604 635.5 665.608 635.5C665.611 635.5 665.615 635.5 665.619 635.5C665.623 635.5 665.626 635.5 665.63 635.5C665.634 635.5 665.638 635.5 665.642 635.5C665.645 635.5 665.649 635.5 665.653 635.5C665.657 635.5 665.66 635.5 665.664 635.5C665.668 635.5 665.672 635.5 665.676 635.5C665.679 635.5 665.683 635.5 665.687 635.5C665.691 635.5 665.694 635.5 665.698 635.5C665.702 635.5 665.706 635.5 665.71 635.5C665.713 635.5 665.717 635.5 665.721 635.5C665.725 635.5 665.728 635.5 665.732 635.5C665.736 635.5 665.74 635.5 665.744 635.5C665.747 635.5 665.751 635.5 665.755 635.5C665.759 635.5 665.762 635.5 665.766 635.5C665.77 635.5 665.774 635.5 665.778 635.5C665.781 635.5 665.785 635.5 665.789 635.5C665.793 635.5 665.796 635.5 665.8 635.5C665.804 635.5 665.808 635.5 665.812 635.5C665.815 635.5 665.819 635.5 665.823 635.5C665.827 635.5 665.831 635.5 665.834 635.5C665.838 635.5 665.842 635.5 665.846 635.5C665.849 635.5 665.853 635.5 665.857 635.5C665.861 635.5 665.865 635.5 665.868 635.5C665.872 635.5 665.876 635.5 665.88 635.5C665.883 635.5 665.887 635.5 665.891 635.5C665.895 635.5 665.899 635.5 665.902 635.5C665.906 635.5 665.91 635.5 665.914 635.5C665.917 635.5 665.921 635.5 665.925 635.5C665.929 635.5 665.933 635.5 665.936 635.5C665.94 635.5 665.944 635.5 665.948 635.5C665.951 635.5 665.955 635.5 665.959 635.5C665.963 635.5 665.967 635.5 665.97 635.5C665.974 635.5 665.978 635.5 665.982 635.5C665.986 635.5 665.989 635.5 665.993 635.5C665.997 635.5 666.001 635.5 666.004 635.5C666.008 635.5 666.012 635.5 666.016 635.5C666.02 635.5 666.023 635.5 666.027 635.5C666.031 635.5 666.035 635.5 666.038 635.5C666.042 635.5 666.046 635.5 666.05 635.5C666.054 635.5 666.057 635.5 666.061 635.5C666.065 635.5 666.069 635.5 666.073 635.5C666.076 635.5 666.08 635.5 666.084 635.5C666.088 635.5 666.091 635.5 666.095 635.5C666.099 635.5 666.103 635.5 666.107 635.5C666.11 635.5 666.114 635.5 666.118 635.5C666.122 635.5 666.125 635.5 666.129 635.5C666.133 635.5 666.137 635.5 666.141 635.5C666.144 635.5 666.148 635.5 666.152 635.5C666.156 635.5 666.16 635.5 666.163 635.5C666.167 635.5 666.171 635.5 666.175 635.5C666.178 635.5 666.182 635.5 666.186 635.5C666.19 635.5 666.194 635.5 666.197 635.5C666.201 635.5 666.205 635.5 666.209 635.5C666.213 635.5 666.216 635.5 666.22 635.5C666.224 635.5 666.228 635.5 666.231 635.5C666.235 635.5 666.239 635.5 666.243 635.5C666.247 635.5 666.25 635.5 666.254 635.5C666.258 635.5 666.262 635.5 666.266 635.5C666.269 635.5 666.273 635.5 666.277 635.5C666.281 635.5 666.284 635.5 666.288 635.5C666.292 635.5 666.296 635.5 666.3 635.5C666.303 635.5 666.307 635.5 666.311 635.5C666.315 635.5 666.319 635.5 666.322 635.5C666.326 635.5 666.33 635.5 666.334 635.5C666.337 635.5 666.341 635.5 666.345 635.5C666.349 635.5 666.353 635.5 666.356 635.5C666.36 635.5 666.364 635.5 666.368 635.5C666.372 635.5 666.375 635.5 666.379 635.5C666.383 635.5 666.387 635.5 666.391 635.5C666.394 635.5 666.398 635.5 666.402 635.5C666.406 635.5 666.409 635.5 666.413 635.5C666.417 635.5 666.421 635.5 666.425 635.5C666.428 635.5 666.432 635.5 666.436 635.5C666.44 635.5 666.444 635.5 666.447 635.5C666.451 635.5 666.455 635.5 666.459 635.5C666.462 635.5 666.466 635.5 666.47 635.5C666.474 635.5 666.478 635.5 666.481 635.5C666.485 635.5 666.489 635.5 666.493 635.5C666.497 635.5 666.5 635.5 666.504 635.5C666.508 635.5 666.512 635.5 666.516 635.5C666.519 635.5 666.523 635.5 666.527 635.5C666.531 635.5 666.534 635.5 666.538 635.5C666.542 635.5 666.546 635.5 666.55 635.5C666.553 635.5 666.557 635.5 666.561 635.5C666.565 635.5 666.569 635.5 666.572 635.5C666.576 635.5 666.58 635.5 666.584 635.5C666.588 635.5 666.591 635.5 666.595 635.5C666.599 635.5 666.603 635.5 666.606 635.5C666.61 635.5 666.614 635.5 666.618 635.5C666.622 635.5 666.625 635.5 666.629 635.5C666.633 635.5 666.637 635.5 666.641 635.5C666.644 635.5 666.648 635.5 666.652 635.5C666.656 635.5 666.66 635.5 666.663 635.5C666.667 635.5 666.671 635.5 666.675 635.5C666.679 635.5 666.682 635.5 666.686 635.5C666.69 635.5 666.694 635.5 666.697 635.5C666.701 635.5 666.705 635.5 666.709 635.5C666.713 635.5 666.716 635.5 666.72 635.5C666.724 635.5 666.728 635.5 666.732 635.5C666.735 635.5 666.739 635.5 666.743 635.5C666.747 635.5 666.751 635.5 666.754 635.5C666.758 635.5 666.762 635.5 666.766 635.5C666.77 635.5 666.773 635.5 666.777 635.5C666.781 635.5 666.785 635.5 666.788 635.5C666.792 635.5 666.796 635.5 666.8 635.5C666.804 635.5 666.807 635.5 666.811 635.5C666.815 635.5 666.819 635.5 666.823 635.5C666.826 635.5 666.83 635.5 666.834 635.5C666.838 635.5 666.842 635.5 666.845 635.5C666.849 635.5 666.853 635.5 666.857 635.5C666.861 635.5 666.864 635.5 666.868 635.5C666.872 635.5 666.876 635.5 666.88 635.5C666.883 635.5 666.887 635.5 666.891 635.5C666.895 635.5 666.899 635.5 666.902 635.5C666.906 635.5 666.91 635.5 666.914 635.5C666.917 635.5 666.921 635.5 666.925 635.5C666.929 635.5 666.933 635.5 666.936 635.5C666.94 635.5 666.944 635.5 666.948 635.5C666.952 635.5 666.955 635.5 666.959 635.5C666.963 635.5 666.967 635.5 666.971 635.5C666.974 635.5 666.978 635.5 666.982 635.5C666.986 635.5 666.99 635.5 666.993 635.5C666.997 635.5 667.001 635.5 667.005 635.5C667.009 635.5 667.012 635.5 667.016 635.5C667.02 635.5 667.024 635.5 667.028 635.5C667.031 635.5 667.035 635.5 667.039 635.5C667.043 635.5 667.047 635.5 667.05 635.5C667.054 635.5 667.058 635.5 667.062 635.5C667.066 635.5 667.069 635.5 667.073 635.5C667.077 635.5 667.081 635.5 667.085 635.5C667.088 635.5 667.092 635.5 667.096 635.5C667.1 635.5 667.104 635.5 667.107 635.5C667.111 635.5 667.115 635.5 667.119 635.5C667.122 635.5 667.126 635.5 667.13 635.5C667.134 635.5 667.138 635.5 667.141 635.5C667.145 635.5 667.149 635.5 667.153 635.5C667.157 635.5 667.16 635.5 667.164 635.5C667.168 635.5 667.172 635.5 667.176 635.5C667.179 635.5 667.183 635.5 667.187 635.5C667.191 635.5 667.195 635.5 667.198 635.5C667.202 635.5 667.206 635.5 667.21 635.5C667.214 635.5 667.217 635.5 667.221 635.5C667.225 635.5 667.229 635.5 667.233 635.5C667.236 635.5 667.24 635.5 667.244 635.5C667.248 635.5 667.252 635.5 667.255 635.5C667.259 635.5 667.263 635.5 667.267 635.5C667.271 635.5 667.274 635.5 667.278 635.5C667.282 635.5 667.286 635.5 667.29 635.5C667.293 635.5 667.297 635.5 667.301 635.5C667.305 635.5 667.309 635.5 667.312 635.5C667.316 635.5 667.32 635.5 667.324 635.5C667.328 635.5 667.331 635.5 667.335 635.5C667.339 635.5 667.343 635.5 667.347 635.5C667.35 635.5 667.354 635.5 667.358 635.5C667.362 635.5 667.366 635.5 667.369 635.5C667.373 635.5 667.377 635.5 667.381 635.5C667.385 635.5 667.388 635.5 667.392 635.5C667.396 635.5 667.4 635.5 667.404 635.5C667.408 635.5 667.411 635.5 667.415 635.5C667.419 635.5 667.423 635.5 667.427 635.5C667.43 635.5 667.434 635.5 667.438 635.5C667.442 635.5 667.446 635.5 667.449 635.5C667.453 635.5 667.457 635.5 667.461 635.5C667.465 635.5 667.468 635.5 667.472 635.5C667.476 635.5 667.48 635.5 667.484 635.5C667.487 635.5 667.491 635.5 667.495 635.5C667.499 635.5 667.503 635.5 667.506 635.5C667.51 635.5 667.514 635.5 667.518 635.5C667.522 635.5 667.525 635.5 667.529 635.5C667.533 635.5 667.537 635.5 667.541 635.5C667.544 635.5 667.548 635.5 667.552 635.5C667.556 635.5 667.56 635.5 667.563 635.5C667.567 635.5 667.571 635.5 667.575 635.5C667.579 635.5 667.582 635.5 667.586 635.5C667.59 635.5 667.594 635.5 667.598 635.5C667.601 635.5 667.605 635.5 667.609 635.5C667.613 635.5 667.617 635.5 667.62 635.5C667.624 635.5 667.628 635.5 667.632 635.5C667.636 635.5 667.639 635.5 667.643 635.5C667.647 635.5 667.651 635.5 667.655 635.5C667.659 635.5 667.662 635.5 667.666 635.5C667.67 635.5 667.674 635.5 667.678 635.5C667.681 635.5 667.685 635.5 667.689 635.5C667.693 635.5 667.697 635.5 667.7 635.5C667.704 635.5 667.708 635.5 667.712 635.5C667.716 635.5 667.719 635.5 667.723 635.5C667.727 635.5 667.731 635.5 667.735 635.5C667.738 635.5 667.742 635.5 667.746 635.5C667.75 635.5 667.754 635.5 667.758 635.5C667.761 635.5 667.765 635.5 667.769 635.5C667.773 635.5 667.777 635.5 667.78 635.5C667.784 635.5 667.788 635.5 667.792 635.5C667.796 635.5 667.799 635.5 667.803 635.5C667.807 635.5 667.811 635.5 667.815 635.5C667.818 635.5 667.822 635.5 667.826 635.5C667.83 635.5 667.834 635.5 667.837 635.5C667.841 635.5 667.845 635.5 667.849 635.5C667.853 635.5 667.856 635.5 667.86 635.5C667.864 635.5 667.868 635.5 667.872 635.5C667.876 635.5 667.879 635.5 667.883 635.5C667.887 635.5 667.891 635.5 667.895 635.5C667.898 635.5 667.902 635.5 667.906 635.5C667.91 635.5 667.914 635.5 667.917 635.5C667.921 635.5 667.925 635.5 667.929 635.5C667.933 635.5 667.936 635.5 667.94 635.5C667.944 635.5 667.948 635.5 667.952 635.5C667.956 635.5 667.959 635.5 667.963 635.5C667.967 635.5 667.971 635.5 667.975 635.5C667.978 635.5 667.982 635.5 667.986 635.5C667.99 635.5 667.994 635.5 667.997 635.5C668.001 635.5 668.005 635.5 668.009 635.5C668.013 635.5 668.016 635.5 668.02 635.5C668.024 635.5 668.028 635.5 668.032 635.5C668.036 635.5 668.039 635.5 668.043 635.5C668.047 635.5 668.051 635.5 668.055 635.5C668.058 635.5 668.062 635.5 668.066 635.5C668.07 635.5 668.074 635.5 668.077 635.5C668.081 635.5 668.085 635.5 668.089 635.5C668.093 635.5 668.096 635.5 668.1 635.5C668.104 635.5 668.108 635.5 668.112 635.5C668.116 635.5 668.119 635.5 668.123 635.5C668.127 635.5 668.131 635.5 668.135 635.5C668.138 635.5 668.142 635.5 668.146 635.5C668.15 635.5 668.154 635.5 668.158 635.5C668.161 635.5 668.165 635.5 668.169 635.5C668.173 635.5 668.177 635.5 668.18 635.5C668.184 635.5 668.188 635.5 668.192 635.5C668.196 635.5 668.199 635.5 668.203 635.5C668.207 635.5 668.211 635.5 668.215 635.5C668.219 635.5 668.222 635.5 668.226 635.5C668.23 635.5 668.234 635.5 668.238 635.5C668.241 635.5 668.245 635.5 668.249 635.5C668.253 635.5 668.257 635.5 668.26 635.5C668.264 635.5 668.268 635.5 668.272 635.5C668.276 635.5 668.28 635.5 668.283 635.5C668.287 635.5 668.291 635.5 668.295 635.5C668.299 635.5 668.302 635.5 668.306 635.5C668.31 635.5 668.314 635.5 668.318 635.5C668.321 635.5 668.325 635.5 668.329 635.5C668.333 635.5 668.337 635.5 668.341 635.5C668.344 635.5 668.348 635.5 668.352 635.5C668.356 635.5 668.36 635.5 668.363 635.5C668.367 635.5 668.371 635.5 668.375 635.5C668.379 635.5 668.383 635.5 668.386 635.5C668.39 635.5 668.394 635.5 668.398 635.5C668.402 635.5 668.405 635.5 668.409 635.5C668.413 635.5 668.417 635.5 668.421 635.5C668.424 635.5 668.428 635.5 668.432 635.5C668.436 635.5 668.44 635.5 668.444 635.5C668.447 635.5 668.451 635.5 668.455 635.5C668.459 635.5 668.463 635.5 668.466 635.5C668.47 635.5 668.474 635.5 668.478 635.5C668.482 635.5 668.486 635.5 668.489 635.5C668.493 635.5 668.497 635.5 668.501 635.5C668.505 635.5 668.508 635.5 668.512 635.5C668.516 635.5 668.52 635.5 668.524 635.5C668.528 635.5 668.531 635.5 668.535 635.5C668.539 635.5 668.543 635.5 668.547 635.5C668.55 635.5 668.554 635.5 668.558 635.5C668.562 635.5 668.566 635.5 668.57 635.5C668.573 635.5 668.577 635.5 668.581 635.5C668.585 635.5 668.589 635.5 668.592 635.5C668.596 635.5 668.6 635.5 668.604 635.5C668.608 635.5 668.612 635.5 668.615 635.5C668.619 635.5 668.623 635.5 668.627 635.5C668.631 635.5 668.634 635.5 668.638 635.5C668.642 635.5 668.646 635.5 668.65 635.5C668.654 635.5 668.657 635.5 668.661 635.5C668.665 635.5 668.669 635.5 668.673 635.5C668.676 635.5 668.68 635.5 668.684 635.5C668.688 635.5 668.692 635.5 668.696 635.5C668.699 635.5 668.703 635.5 668.707 635.5C668.711 635.5 668.715 635.5 668.718 635.5C668.722 635.5 668.726 635.5 668.73 635.5C668.734 635.5 668.738 635.5 668.741 635.5C668.745 635.5 668.749 635.5 668.753 635.5C668.757 635.5 668.76 635.5 668.764 635.5C668.768 635.5 668.772 635.5 668.776 635.5C668.78 635.5 668.783 635.5 668.787 635.5C668.791 635.5 668.795 635.5 668.799 635.5C668.803 635.5 668.806 635.5 668.81 635.5C668.814 635.5 668.818 635.5 668.822 635.5C668.825 635.5 668.829 635.5 668.833 635.5C668.837 635.5 668.841 635.5 668.845 635.5C668.848 635.5 668.852 635.5 668.856 635.5C668.86 635.5 668.864 635.5 668.867 635.5C668.871 635.5 668.875 635.5 668.879 635.5C668.883 635.5 668.887 635.5 668.89 635.5C668.894 635.5 668.898 635.5 668.902 635.5C668.906 635.5 668.91 635.5 668.913 635.5C668.917 635.5 668.921 635.5 668.925 635.5C668.929 635.5 668.932 635.5 668.936 635.5C668.94 635.5 668.944 635.5 668.948 635.5C668.952 635.5 668.955 635.5 668.959 635.5C668.963 635.5 668.967 635.5 668.971 635.5C668.975 635.5 668.978 635.5 668.982 635.5C668.986 635.5 668.99 635.5 668.994 635.5C668.997 635.5 669.001 635.5 669.005 635.5C669.009 635.5 669.013 635.5 669.017 635.5C669.02 635.5 669.024 635.5 669.028 635.5C669.032 635.5 669.036 635.5 669.04 635.5C669.043 635.5 669.047 635.5 669.051 635.5C669.055 635.5 669.059 635.5 669.062 635.5V627.5V619.5C669.059 619.5 669.055 619.5 669.051 619.5C669.047 619.5 669.043 619.5 669.04 619.5C669.036 619.5 669.032 619.5 669.028 619.5C669.024 619.5 669.02 619.5 669.017 619.5C669.013 619.5 669.009 619.5 669.005 619.5C669.001 619.5 668.997 619.5 668.994 619.5C668.99 619.5 668.986 619.5 668.982 619.5C668.978 619.5 668.975 619.5 668.971 619.5C668.967 619.5 668.963 619.5 668.959 619.5C668.955 619.5 668.952 619.5 668.948 619.5C668.944 619.5 668.94 619.5 668.936 619.5C668.932 619.5 668.929 619.5 668.925 619.5C668.921 619.5 668.917 619.5 668.913 619.5C668.91 619.5 668.906 619.5 668.902 619.5C668.898 619.5 668.894 619.5 668.89 619.5C668.887 619.5 668.883 619.5 668.879 619.5C668.875 619.5 668.871 619.5 668.867 619.5C668.864 619.5 668.86 619.5 668.856 619.5C668.852 619.5 668.848 619.5 668.845 619.5C668.841 619.5 668.837 619.5 668.833 619.5C668.829 619.5 668.825 619.5 668.822 619.5C668.818 619.5 668.814 619.5 668.81 619.5C668.806 619.5 668.803 619.5 668.799 619.5C668.795 619.5 668.791 619.5 668.787 619.5C668.783 619.5 668.78 619.5 668.776 619.5C668.772 619.5 668.768 619.5 668.764 619.5C668.76 619.5 668.757 619.5 668.753 619.5C668.749 619.5 668.745 619.5 668.741 619.5C668.738 619.5 668.734 619.5 668.73 619.5C668.726 619.5 668.722 619.5 668.718 619.5C668.715 619.5 668.711 619.5 668.707 619.5C668.703 619.5 668.699 619.5 668.696 619.5C668.692 619.5 668.688 619.5 668.684 619.5C668.68 619.5 668.676 619.5 668.673 619.5C668.669 619.5 668.665 619.5 668.661 619.5C668.657 619.5 668.654 619.5 668.65 619.5C668.646 619.5 668.642 619.5 668.638 619.5C668.634 619.5 668.631 619.5 668.627 619.5C668.623 619.5 668.619 619.5 668.615 619.5C668.612 619.5 668.608 619.5 668.604 619.5C668.6 619.5 668.596 619.5 668.592 619.5C668.589 619.5 668.585 619.5 668.581 619.5C668.577 619.5 668.573 619.5 668.57 619.5C668.566 619.5 668.562 619.5 668.558 619.5C668.554 619.5 668.55 619.5 668.547 619.5C668.543 619.5 668.539 619.5 668.535 619.5C668.531 619.5 668.528 619.5 668.524 619.5C668.52 619.5 668.516 619.5 668.512 619.5C668.508 619.5 668.505 619.5 668.501 619.5C668.497 619.5 668.493 619.5 668.489 619.5C668.486 619.5 668.482 619.5 668.478 619.5C668.474 619.5 668.47 619.5 668.466 619.5C668.463 619.5 668.459 619.5 668.455 619.5C668.451 619.5 668.447 619.5 668.444 619.5C668.44 619.5 668.436 619.5 668.432 619.5C668.428 619.5 668.424 619.5 668.421 619.5C668.417 619.5 668.413 619.5 668.409 619.5C668.405 619.5 668.402 619.5 668.398 619.5C668.394 619.5 668.39 619.5 668.386 619.5C668.383 619.5 668.379 619.5 668.375 619.5C668.371 619.5 668.367 619.5 668.363 619.5C668.36 619.5 668.356 619.5 668.352 619.5C668.348 619.5 668.344 619.5 668.341 619.5C668.337 619.5 668.333 619.5 668.329 619.5C668.325 619.5 668.321 619.5 668.318 619.5C668.314 619.5 668.31 619.5 668.306 619.5C668.302 619.5 668.299 619.5 668.295 619.5C668.291 619.5 668.287 619.5 668.283 619.5C668.28 619.5 668.276 619.5 668.272 619.5C668.268 619.5 668.264 619.5 668.26 619.5C668.257 619.5 668.253 619.5 668.249 619.5C668.245 619.5 668.241 619.5 668.238 619.5C668.234 619.5 668.23 619.5 668.226 619.5C668.222 619.5 668.219 619.5 668.215 619.5C668.211 619.5 668.207 619.5 668.203 619.5C668.199 619.5 668.196 619.5 668.192 619.5C668.188 619.5 668.184 619.5 668.18 619.5C668.177 619.5 668.173 619.5 668.169 619.5C668.165 619.5 668.161 619.5 668.158 619.5C668.154 619.5 668.15 619.5 668.146 619.5C668.142 619.5 668.138 619.5 668.135 619.5C668.131 619.5 668.127 619.5 668.123 619.5C668.119 619.5 668.116 619.5 668.112 619.5C668.108 619.5 668.104 619.5 668.1 619.5C668.096 619.5 668.093 619.5 668.089 619.5C668.085 619.5 668.081 619.5 668.077 619.5C668.074 619.5 668.07 619.5 668.066 619.5C668.062 619.5 668.058 619.5 668.055 619.5C668.051 619.5 668.047 619.5 668.043 619.5C668.039 619.5 668.036 619.5 668.032 619.5C668.028 619.5 668.024 619.5 668.02 619.5C668.016 619.5 668.013 619.5 668.009 619.5C668.005 619.5 668.001 619.5 667.997 619.5C667.994 619.5 667.99 619.5 667.986 619.5C667.982 619.5 667.978 619.5 667.975 619.5C667.971 619.5 667.967 619.5 667.963 619.5C667.959 619.5 667.956 619.5 667.952 619.5C667.948 619.5 667.944 619.5 667.94 619.5C667.936 619.5 667.933 619.5 667.929 619.5C667.925 619.5 667.921 619.5 667.917 619.5C667.914 619.5 667.91 619.5 667.906 619.5C667.902 619.5 667.898 619.5 667.895 619.5C667.891 619.5 667.887 619.5 667.883 619.5C667.879 619.5 667.876 619.5 667.872 619.5C667.868 619.5 667.864 619.5 667.86 619.5C667.856 619.5 667.853 619.5 667.849 619.5C667.845 619.5 667.841 619.5 667.837 619.5C667.834 619.5 667.83 619.5 667.826 619.5C667.822 619.5 667.818 619.5 667.815 619.5C667.811 619.5 667.807 619.5 667.803 619.5C667.799 619.5 667.796 619.5 667.792 619.5C667.788 619.5 667.784 619.5 667.78 619.5C667.777 619.5 667.773 619.5 667.769 619.5C667.765 619.5 667.761 619.5 667.758 619.5C667.754 619.5 667.75 619.5 667.746 619.5C667.742 619.5 667.738 619.5 667.735 619.5C667.731 619.5 667.727 619.5 667.723 619.5C667.719 619.5 667.716 619.5 667.712 619.5C667.708 619.5 667.704 619.5 667.7 619.5C667.697 619.5 667.693 619.5 667.689 619.5C667.685 619.5 667.681 619.5 667.678 619.5C667.674 619.5 667.67 619.5 667.666 619.5C667.662 619.5 667.659 619.5 667.655 619.5C667.651 619.5 667.647 619.5 667.643 619.5C667.639 619.5 667.636 619.5 667.632 619.5C667.628 619.5 667.624 619.5 667.62 619.5C667.617 619.5 667.613 619.5 667.609 619.5C667.605 619.5 667.601 619.5 667.598 619.5C667.594 619.5 667.59 619.5 667.586 619.5C667.582 619.5 667.579 619.5 667.575 619.5C667.571 619.5 667.567 619.5 667.563 619.5C667.56 619.5 667.556 619.5 667.552 619.5C667.548 619.5 667.544 619.5 667.541 619.5C667.537 619.5 667.533 619.5 667.529 619.5C667.525 619.5 667.522 619.5 667.518 619.5C667.514 619.5 667.51 619.5 667.506 619.5C667.503 619.5 667.499 619.5 667.495 619.5C667.491 619.5 667.487 619.5 667.484 619.5C667.48 619.5 667.476 619.5 667.472 619.5C667.468 619.5 667.465 619.5 667.461 619.5C667.457 619.5 667.453 619.5 667.449 619.5C667.446 619.5 667.442 619.5 667.438 619.5C667.434 619.5 667.43 619.5 667.427 619.5C667.423 619.5 667.419 619.5 667.415 619.5C667.411 619.5 667.408 619.5 667.404 619.5C667.4 619.5 667.396 619.5 667.392 619.5C667.388 619.5 667.385 619.5 667.381 619.5C667.377 619.5 667.373 619.5 667.369 619.5C667.366 619.5 667.362 619.5 667.358 619.5C667.354 619.5 667.35 619.5 667.347 619.5C667.343 619.5 667.339 619.5 667.335 619.5C667.331 619.5 667.328 619.5 667.324 619.5C667.32 619.5 667.316 619.5 667.312 619.5C667.309 619.5 667.305 619.5 667.301 619.5C667.297 619.5 667.293 619.5 667.29 619.5C667.286 619.5 667.282 619.5 667.278 619.5C667.274 619.5 667.271 619.5 667.267 619.5C667.263 619.5 667.259 619.5 667.255 619.5C667.252 619.5 667.248 619.5 667.244 619.5C667.24 619.5 667.236 619.5 667.233 619.5C667.229 619.5 667.225 619.5 667.221 619.5C667.217 619.5 667.214 619.5 667.21 619.5C667.206 619.5 667.202 619.5 667.198 619.5C667.195 619.5 667.191 619.5 667.187 619.5C667.183 619.5 667.179 619.5 667.176 619.5C667.172 619.5 667.168 619.5 667.164 619.5C667.16 619.5 667.157 619.5 667.153 619.5C667.149 619.5 667.145 619.5 667.141 619.5C667.138 619.5 667.134 619.5 667.13 619.5C667.126 619.5 667.122 619.5 667.119 619.5C667.115 619.5 667.111 619.5 667.107 619.5C667.104 619.5 667.1 619.5 667.096 619.5C667.092 619.5 667.088 619.5 667.085 619.5C667.081 619.5 667.077 619.5 667.073 619.5C667.069 619.5 667.066 619.5 667.062 619.5C667.058 619.5 667.054 619.5 667.05 619.5C667.047 619.5 667.043 619.5 667.039 619.5C667.035 619.5 667.031 619.5 667.028 619.5C667.024 619.5 667.02 619.5 667.016 619.5C667.012 619.5 667.009 619.5 667.005 619.5C667.001 619.5 666.997 619.5 666.993 619.5C666.99 619.5 666.986 619.5 666.982 619.5C666.978 619.5 666.974 619.5 666.971 619.5C666.967 619.5 666.963 619.5 666.959 619.5C666.955 619.5 666.952 619.5 666.948 619.5C666.944 619.5 666.94 619.5 666.936 619.5C666.933 619.5 666.929 619.5 666.925 619.5C666.921 619.5 666.917 619.5 666.914 619.5C666.91 619.5 666.906 619.5 666.902 619.5C666.899 619.5 666.895 619.5 666.891 619.5C666.887 619.5 666.883 619.5 666.88 619.5C666.876 619.5 666.872 619.5 666.868 619.5C666.864 619.5 666.861 619.5 666.857 619.5C666.853 619.5 666.849 619.5 666.845 619.5C666.842 619.5 666.838 619.5 666.834 619.5C666.83 619.5 666.826 619.5 666.823 619.5C666.819 619.5 666.815 619.5 666.811 619.5C666.807 619.5 666.804 619.5 666.8 619.5C666.796 619.5 666.792 619.5 666.788 619.5C666.785 619.5 666.781 619.5 666.777 619.5C666.773 619.5 666.77 619.5 666.766 619.5C666.762 619.5 666.758 619.5 666.754 619.5C666.751 619.5 666.747 619.5 666.743 619.5C666.739 619.5 666.735 619.5 666.732 619.5C666.728 619.5 666.724 619.5 666.72 619.5C666.716 619.5 666.713 619.5 666.709 619.5C666.705 619.5 666.701 619.5 666.697 619.5C666.694 619.5 666.69 619.5 666.686 619.5C666.682 619.5 666.679 619.5 666.675 619.5C666.671 619.5 666.667 619.5 666.663 619.5C666.66 619.5 666.656 619.5 666.652 619.5C666.648 619.5 666.644 619.5 666.641 619.5C666.637 619.5 666.633 619.5 666.629 619.5C666.625 619.5 666.622 619.5 666.618 619.5C666.614 619.5 666.61 619.5 666.606 619.5C666.603 619.5 666.599 619.5 666.595 619.5C666.591 619.5 666.588 619.5 666.584 619.5C666.58 619.5 666.576 619.5 666.572 619.5C666.569 619.5 666.565 619.5 666.561 619.5C666.557 619.5 666.553 619.5 666.55 619.5C666.546 619.5 666.542 619.5 666.538 619.5C666.534 619.5 666.531 619.5 666.527 619.5C666.523 619.5 666.519 619.5 666.516 619.5C666.512 619.5 666.508 619.5 666.504 619.5C666.5 619.5 666.497 619.5 666.493 619.5C666.489 619.5 666.485 619.5 666.481 619.5C666.478 619.5 666.474 619.5 666.47 619.5C666.466 619.5 666.462 619.5 666.459 619.5C666.455 619.5 666.451 619.5 666.447 619.5C666.444 619.5 666.44 619.5 666.436 619.5C666.432 619.5 666.428 619.5 666.425 619.5C666.421 619.5 666.417 619.5 666.413 619.5C666.409 619.5 666.406 619.5 666.402 619.5C666.398 619.5 666.394 619.5 666.391 619.5C666.387 619.5 666.383 619.5 666.379 619.5C666.375 619.5 666.372 619.5 666.368 619.5C666.364 619.5 666.36 619.5 666.356 619.5C666.353 619.5 666.349 619.5 666.345 619.5C666.341 619.5 666.337 619.5 666.334 619.5C666.33 619.5 666.326 619.5 666.322 619.5C666.319 619.5 666.315 619.5 666.311 619.5C666.307 619.5 666.303 619.5 666.3 619.5C666.296 619.5 666.292 619.5 666.288 619.5C666.284 619.5 666.281 619.5 666.277 619.5C666.273 619.5 666.269 619.5 666.266 619.5C666.262 619.5 666.258 619.5 666.254 619.5C666.25 619.5 666.247 619.5 666.243 619.5C666.239 619.5 666.235 619.5 666.231 619.5C666.228 619.5 666.224 619.5 666.22 619.5C666.216 619.5 666.213 619.5 666.209 619.5C666.205 619.5 666.201 619.5 666.197 619.5C666.194 619.5 666.19 619.5 666.186 619.5C666.182 619.5 666.178 619.5 666.175 619.5C666.171 619.5 666.167 619.5 666.163 619.5C666.16 619.5 666.156 619.5 666.152 619.5C666.148 619.5 666.144 619.5 666.141 619.5C666.137 619.5 666.133 619.5 666.129 619.5C666.125 619.5 666.122 619.5 666.118 619.5C666.114 619.5 666.11 619.5 666.107 619.5C666.103 619.5 666.099 619.5 666.095 619.5C666.091 619.5 666.088 619.5 666.084 619.5C666.08 619.5 666.076 619.5 666.073 619.5C666.069 619.5 666.065 619.5 666.061 619.5C666.057 619.5 666.054 619.5 666.05 619.5C666.046 619.5 666.042 619.5 666.038 619.5C666.035 619.5 666.031 619.5 666.027 619.5C666.023 619.5 666.02 619.5 666.016 619.5C666.012 619.5 666.008 619.5 666.004 619.5C666.001 619.5 665.997 619.5 665.993 619.5C665.989 619.5 665.986 619.5 665.982 619.5C665.978 619.5 665.974 619.5 665.97 619.5C665.967 619.5 665.963 619.5 665.959 619.5C665.955 619.5 665.951 619.5 665.948 619.5C665.944 619.5 665.94 619.5 665.936 619.5C665.933 619.5 665.929 619.5 665.925 619.5C665.921 619.5 665.917 619.5 665.914 619.5C665.91 619.5 665.906 619.5 665.902 619.5C665.899 619.5 665.895 619.5 665.891 619.5C665.887 619.5 665.883 619.5 665.88 619.5C665.876 619.5 665.872 619.5 665.868 619.5C665.865 619.5 665.861 619.5 665.857 619.5C665.853 619.5 665.849 619.5 665.846 619.5C665.842 619.5 665.838 619.5 665.834 619.5C665.831 619.5 665.827 619.5 665.823 619.5C665.819 619.5 665.815 619.5 665.812 619.5C665.808 619.5 665.804 619.5 665.8 619.5C665.796 619.5 665.793 619.5 665.789 619.5C665.785 619.5 665.781 619.5 665.778 619.5C665.774 619.5 665.77 619.5 665.766 619.5C665.762 619.5 665.759 619.5 665.755 619.5C665.751 619.5 665.747 619.5 665.744 619.5C665.74 619.5 665.736 619.5 665.732 619.5C665.728 619.5 665.725 619.5 665.721 619.5C665.717 619.5 665.713 619.5 665.71 619.5C665.706 619.5 665.702 619.5 665.698 619.5C665.694 619.5 665.691 619.5 665.687 619.5C665.683 619.5 665.679 619.5 665.676 619.5C665.672 619.5 665.668 619.5 665.664 619.5C665.66 619.5 665.657 619.5 665.653 619.5C665.649 619.5 665.645 619.5 665.642 619.5C665.638 619.5 665.634 619.5 665.63 619.5C665.626 619.5 665.623 619.5 665.619 619.5C665.615 619.5 665.611 619.5 665.608 619.5C665.604 619.5 665.6 619.5 665.596 619.5C665.592 619.5 665.589 619.5 665.585 619.5C665.581 619.5 665.577 619.5 665.574 619.5C665.57 619.5 665.566 619.5 665.562 619.5C665.559 619.5 665.555 619.5 665.551 619.5C665.547 619.5 665.543 619.5 665.54 619.5C665.536 619.5 665.532 619.5 665.528 619.5C665.525 619.5 665.521 619.5 665.517 619.5C665.513 619.5 665.509 619.5 665.506 619.5C665.502 619.5 665.498 619.5 665.494 619.5C665.491 619.5 665.487 619.5 665.483 619.5C665.479 619.5 665.475 619.5 665.472 619.5C665.468 619.5 665.464 619.5 665.46 619.5C665.457 619.5 665.453 619.5 665.449 619.5C665.445 619.5 665.441 619.5 665.438 619.5C665.434 619.5 665.43 619.5 665.426 619.5C665.423 619.5 665.419 619.5 665.415 619.5C665.411 619.5 665.408 619.5 665.404 619.5C665.4 619.5 665.396 619.5 665.392 619.5C665.389 619.5 665.385 619.5 665.381 619.5C665.377 619.5 665.374 619.5 665.37 619.5C665.366 619.5 665.362 619.5 665.358 619.5C665.355 619.5 665.351 619.5 665.347 619.5C665.343 619.5 665.34 619.5 665.336 619.5C665.332 619.5 665.328 619.5 665.324 619.5C665.321 619.5 665.317 619.5 665.313 619.5C665.309 619.5 665.306 619.5 665.302 619.5C665.298 619.5 665.294 619.5 665.291 619.5C665.287 619.5 665.283 619.5 665.279 619.5C665.275 619.5 665.272 619.5 665.268 619.5C665.264 619.5 665.26 619.5 665.257 619.5C665.253 619.5 665.249 619.5 665.245 619.5C665.241 619.5 665.238 619.5 665.234 619.5C665.23 619.5 665.226 619.5 665.223 619.5C665.219 619.5 665.215 619.5 665.211 619.5C665.208 619.5 665.204 619.5 665.2 619.5C665.196 619.5 665.192 619.5 665.189 619.5C665.185 619.5 665.181 619.5 665.177 619.5C665.174 619.5 665.17 619.5 665.166 619.5C665.162 619.5 665.159 619.5 665.155 619.5C665.151 619.5 665.147 619.5 665.143 619.5C665.14 619.5 665.136 619.5 665.132 619.5C665.128 619.5 665.125 619.5 665.121 619.5C665.117 619.5 665.113 619.5 665.11 619.5C665.106 619.5 665.102 619.5 665.098 619.5C665.094 619.5 665.091 619.5 665.087 619.5C665.083 619.5 665.079 619.5 665.076 619.5C665.072 619.5 665.068 619.5 665.064 619.5C665.061 619.5 665.057 619.5 665.053 619.5C665.049 619.5 665.045 619.5 665.042 619.5C665.038 619.5 665.034 619.5 665.03 619.5C665.027 619.5 665.023 619.5 665.019 619.5C665.015 619.5 665.012 619.5 665.008 619.5C665.004 619.5 665 619.5 664.996 619.5C664.993 619.5 664.989 619.5 664.985 619.5C664.981 619.5 664.978 619.5 664.974 619.5C664.97 619.5 664.966 619.5 664.963 619.5C664.959 619.5 664.955 619.5 664.951 619.5C664.947 619.5 664.944 619.5 664.94 619.5C664.936 619.5 664.932 619.5 664.929 619.5C664.925 619.5 664.921 619.5 664.917 619.5C664.914 619.5 664.91 619.5 664.906 619.5C664.902 619.5 664.898 619.5 664.895 619.5C664.891 619.5 664.887 619.5 664.883 619.5C664.88 619.5 664.876 619.5 664.872 619.5C664.868 619.5 664.865 619.5 664.861 619.5C664.857 619.5 664.853 619.5 664.85 619.5C664.846 619.5 664.842 619.5 664.838 619.5C664.834 619.5 664.831 619.5 664.827 619.5C664.823 619.5 664.819 619.5 664.816 619.5C664.812 619.5 664.808 619.5 664.804 619.5C664.801 619.5 664.797 619.5 664.793 619.5C664.789 619.5 664.786 619.5 664.782 619.5C664.778 619.5 664.774 619.5 664.77 619.5C664.767 619.5 664.763 619.5 664.759 619.5C664.755 619.5 664.752 619.5 664.748 619.5C664.744 619.5 664.74 619.5 664.737 619.5C664.733 619.5 664.729 619.5 664.725 619.5C664.722 619.5 664.718 619.5 664.714 619.5C664.71 619.5 664.706 619.5 664.703 619.5C664.699 619.5 664.695 619.5 664.691 619.5C664.688 619.5 664.684 619.5 664.68 619.5C664.676 619.5 664.673 619.5 664.669 619.5C664.665 619.5 664.661 619.5 664.658 619.5C664.654 619.5 664.65 619.5 664.646 619.5C664.642 619.5 664.639 619.5 664.635 619.5C664.631 619.5 664.627 619.5 664.624 619.5C664.62 619.5 664.616 619.5 664.612 619.5C664.609 619.5 664.605 619.5 664.601 619.5C664.597 619.5 664.594 619.5 664.59 619.5C664.586 619.5 664.582 619.5 664.579 619.5C664.575 619.5 664.571 619.5 664.567 619.5C664.563 619.5 664.56 619.5 664.556 619.5C664.552 619.5 664.548 619.5 664.545 619.5C664.541 619.5 664.537 619.5 664.533 619.5C664.53 619.5 664.526 619.5 664.522 619.5C664.518 619.5 664.515 619.5 664.511 619.5C664.507 619.5 664.503 619.5 664.5 619.5C664.496 619.5 664.492 619.5 664.488 619.5C664.484 619.5 664.481 619.5 664.477 619.5C664.473 619.5 664.469 619.5 664.466 619.5C664.462 619.5 664.458 619.5 664.454 619.5C664.451 619.5 664.447 619.5 664.443 619.5C664.439 619.5 664.436 619.5 664.432 619.5C664.428 619.5 664.424 619.5 664.421 619.5C664.417 619.5 664.413 619.5 664.409 619.5C664.406 619.5 664.402 619.5 664.398 619.5C664.394 619.5 664.39 619.5 664.387 619.5C664.383 619.5 664.379 619.5 664.375 619.5C664.372 619.5 664.368 619.5 664.364 619.5C664.36 619.5 664.357 619.5 664.353 619.5C664.349 619.5 664.345 619.5 664.342 619.5C664.338 619.5 664.334 619.5 664.33 619.5C664.327 619.5 664.323 619.5 664.319 619.5C664.315 619.5 664.312 619.5 664.308 619.5C664.304 619.5 664.3 619.5 664.297 619.5C664.293 619.5 664.289 619.5 664.285 619.5C664.281 619.5 664.278 619.5 664.274 619.5C664.27 619.5 664.266 619.5 664.263 619.5C664.259 619.5 664.255 619.5 664.251 619.5C664.248 619.5 664.244 619.5 664.24 619.5C664.236 619.5 664.233 619.5 664.229 619.5C664.225 619.5 664.221 619.5 664.218 619.5C664.214 619.5 664.21 619.5 664.206 619.5C664.203 619.5 664.199 619.5 664.195 619.5C664.191 619.5 664.188 619.5 664.184 619.5C664.18 619.5 664.176 619.5 664.173 619.5C664.169 619.5 664.165 619.5 664.161 619.5C664.157 619.5 664.154 619.5 664.15 619.5C664.146 619.5 664.142 619.5 664.139 619.5C664.135 619.5 664.131 619.5 664.127 619.5C664.124 619.5 664.12 619.5 664.116 619.5C664.112 619.5 664.109 619.5 664.105 619.5C664.101 619.5 664.097 619.5 664.094 619.5C664.09 619.5 664.086 619.5 664.082 619.5C664.079 619.5 664.075 619.5 664.071 619.5C664.067 619.5 664.064 619.5 664.06 619.5C664.056 619.5 664.052 619.5 664.049 619.5C664.045 619.5 664.041 619.5 664.037 619.5C664.034 619.5 664.03 619.5 664.026 619.5C664.022 619.5 664.019 619.5 664.015 619.5C664.011 619.5 664.007 619.5 664.004 619.5C664 619.5 663.996 619.5 663.992 619.5C663.988 619.5 663.985 619.5 663.981 619.5C663.977 619.5 663.973 619.5 663.97 619.5C663.966 619.5 663.962 619.5 663.958 619.5C663.955 619.5 663.951 619.5 663.947 619.5C663.943 619.5 663.94 619.5 663.936 619.5C663.932 619.5 663.928 619.5 663.925 619.5C663.921 619.5 663.917 619.5 663.913 619.5C663.91 619.5 663.906 619.5 663.902 619.5C663.898 619.5 663.895 619.5 663.891 619.5C663.887 619.5 663.883 619.5 663.88 619.5C663.876 619.5 663.872 619.5 663.868 619.5C663.865 619.5 663.861 619.5 663.857 619.5C663.853 619.5 663.85 619.5 663.846 619.5C663.842 619.5 663.838 619.5 663.835 619.5C663.831 619.5 663.827 619.5 663.823 619.5C663.82 619.5 663.816 619.5 663.812 619.5C663.808 619.5 663.805 619.5 663.801 619.5C663.797 619.5 663.793 619.5 663.79 619.5C663.786 619.5 663.782 619.5 663.778 619.5C663.775 619.5 663.771 619.5 663.767 619.5C663.763 619.5 663.76 619.5 663.756 619.5C663.752 619.5 663.748 619.5 663.745 619.5C663.741 619.5 663.737 619.5 663.733 619.5C663.73 619.5 663.726 619.5 663.722 619.5C663.718 619.5 663.715 619.5 663.711 619.5C663.707 619.5 663.703 619.5 663.7 619.5C663.696 619.5 663.692 619.5 663.688 619.5C663.685 619.5 663.681 619.5 663.677 619.5C663.673 619.5 663.67 619.5 663.666 619.5C663.662 619.5 663.658 619.5 663.655 619.5C663.651 619.5 663.647 619.5 663.643 619.5C663.64 619.5 663.636 619.5 663.632 619.5C663.628 619.5 663.625 619.5 663.621 619.5C663.617 619.5 663.613 619.5 663.61 619.5C663.606 619.5 663.602 619.5 663.598 619.5C663.595 619.5 663.591 619.5 663.587 619.5C663.583 619.5 663.58 619.5 663.576 619.5C663.572 619.5 663.568 619.5 663.565 619.5C663.561 619.5 663.557 619.5 663.553 619.5C663.55 619.5 663.546 619.5 663.542 619.5C663.538 619.5 663.535 619.5 663.531 619.5C663.527 619.5 663.523 619.5 663.52 619.5C663.516 619.5 663.512 619.5 663.508 619.5C663.505 619.5 663.501 619.5 663.497 619.5C663.493 619.5 663.49 619.5 663.486 619.5C663.482 619.5 663.478 619.5 663.475 619.5C663.471 619.5 663.467 619.5 663.463 619.5C663.46 619.5 663.456 619.5 663.452 619.5C663.448 619.5 663.445 619.5 663.441 619.5C663.437 619.5 663.434 619.5 663.43 619.5C663.426 619.5 663.422 619.5 663.419 619.5C663.415 619.5 663.411 619.5 663.407 619.5C663.404 619.5 663.4 619.5 663.396 619.5C663.392 619.5 663.389 619.5 663.385 619.5C663.381 619.5 663.377 619.5 663.374 619.5C663.37 619.5 663.366 619.5 663.362 619.5C663.359 619.5 663.355 619.5 663.351 619.5C663.347 619.5 663.344 619.5 663.34 619.5C663.336 619.5 663.332 619.5 663.329 619.5C663.325 619.5 663.321 619.5 663.317 619.5C663.314 619.5 663.31 619.5 663.306 619.5C663.302 619.5 663.299 619.5 663.295 619.5C663.291 619.5 663.287 619.5 663.284 619.5C663.28 619.5 663.276 619.5 663.272 619.5C663.269 619.5 663.265 619.5 663.261 619.5C663.257 619.5 663.254 619.5 663.25 619.5V627.5ZM669.062 627.5V635.5C671.443 635.5 673.784 635.479 676.086 635.436L675.938 627.438L675.789 619.439C673.591 619.48 671.348 619.5 669.062 619.5V627.5ZM675.938 627.438L676.086 635.436C678.284 635.395 680.527 635.375 682.812 635.375V627.375V619.375C680.432 619.375 678.091 619.396 675.789 619.439L675.938 627.438ZM744.938 572.875L752.921 573.385L753.464 564.875H744.938V572.875ZM743.438 596.125L743.852 604.114L750.817 603.753L751.409 596.803L743.438 596.125ZM716.938 597.5L716.523 589.511L709.518 589.874L708.963 596.867L716.938 597.5ZM716.312 605.375L708.338 604.742L707.652 613.375H716.312V605.375ZM734.938 605.375L742.917 605.941L743.525 597.375H734.938V605.375ZM733.562 624.75L733.829 632.746L741.032 632.505L741.542 625.316L733.562 624.75ZM714.812 625.375L714.546 617.379L707.325 617.62L706.831 624.828L714.812 625.375ZM714.188 634.5L706.206 633.953L705.621 642.5H714.188V634.5ZM740.688 634.5L748.676 634.936L749.136 626.5H740.688V634.5ZM739.875 648.188L731.891 647.675L731.889 647.709L731.887 647.744L739.875 648.188ZM739.188 661.75L739.373 669.748L746.837 669.575L747.179 662.117L739.188 661.75ZM685.312 663L677.314 662.823L677.129 671.192L685.498 670.998L685.312 663ZM687.312 572.875V564.875H679.488L679.314 572.698L687.312 572.875ZM744.938 572.875L736.954 572.365C736.702 576.307 736.472 580.207 736.262 584.066L744.25 584.5L752.238 584.934C752.445 581.127 752.673 577.277 752.921 573.385L744.938 572.875ZM744.25 584.5L736.262 584.066C736.058 587.816 735.793 591.609 735.466 595.447L743.438 596.125L751.409 596.803C751.749 592.807 752.025 588.851 752.238 584.934L744.25 584.5ZM743.438 596.125L743.023 588.136L716.523 589.511L716.938 597.5L717.352 605.489L743.852 604.114L743.438 596.125ZM716.938 597.5L708.963 596.867L708.338 604.742L716.312 605.375L724.287 606.008L724.912 598.133L716.938 597.5ZM716.312 605.375V613.375H734.938V605.375V597.375H716.312V605.375ZM734.938 605.375L726.958 604.809L725.583 624.184L733.562 624.75L741.542 625.316L742.917 605.941L734.938 605.375ZM733.562 624.75L733.296 616.754L714.546 617.379L714.812 625.375L715.079 633.371L733.829 632.746L733.562 624.75ZM714.812 625.375L706.831 624.828L706.206 633.953L714.188 634.5L722.169 635.047L722.794 625.922L714.812 625.375ZM714.188 634.5V642.5H729.688V634.5V626.5H714.188V634.5ZM729.688 634.5V642.5H740.688V634.5V626.5H729.688V634.5ZM740.688 634.5L732.699 634.064C732.451 638.622 732.181 643.159 731.891 647.675L739.875 648.188L747.859 648.7C748.152 644.133 748.424 639.545 748.676 634.936L740.688 634.5ZM739.875 648.188L731.887 647.744C731.636 652.27 731.405 656.816 731.196 661.383L739.188 661.75L747.179 662.117C747.386 657.6 747.614 653.105 747.863 648.631L739.875 648.188ZM739.188 661.75L739.002 653.752L685.127 655.002L685.312 663L685.498 670.998L739.373 669.748L739.188 661.75ZM685.312 663L693.311 663.177L695.311 573.052L687.312 572.875L679.314 572.698L677.314 662.823L685.312 663ZM687.312 572.875V580.875H744.938V572.875V564.875H687.312V572.875Z" fill="black" mask="url(#path-28-outside-1_5_109)"/>
</g>
<defs>
<filter id="filter0_d_5_109" x="266.012" y="563.375" width="491.452" height="117.125" filterUnits="userSpaceOnUse" color-interpolation-filters="sRGB">
<feFlood flood-opacity="0" result="BackgroundImageFix"/>
<feColorMatrix in="SourceAlpha" type="matrix" values="0 0 0 0 0 0 0 0 0 0 0 0 0 0 0 0 0 0 127 0" result="hardAlpha"/>
<feOffset dy="4"/>
<feGaussianBlur stdDeviation="2"/>
<feComposite in2="hardAlpha" operator="out"/>
<feColorMatrix type="matrix" values="0 0 0 0 0 0 0 0 0 0 0 0 0 0 0 0 0 0 0.25 0"/>
<feBlend mode="normal" in2="BackgroundImageFix" result="effect1_dropShadow_5_109"/>
<feBlend mode="normal" in="SourceGraphic" in2="effect1_dropShadow_5_109" result="shape"/>
</filter>
<linearGradient id="paint0_linear_5_109" x1="498" y1="716" x2="473.5" y2="932.5" gradientUnits="userSpaceOnUse">
<stop stop-color="#007CC2"/>
<stop offset="1" stop-color="#16B6FF"/>
</linearGradient>
<linearGradient id="paint1_linear_5_109" x1="473" y1="694" x2="388" y2="870.5" gradientUnits="userSpaceOnUse">
<stop stop-color="#007CC2"/>
<stop offset="1" stop-color="#16B6FF"/>
</linearGradient>
<linearGradient id="paint2_linear_5_109" x1="454.5" y1="669" x2="357" y2="778.5" gradientUnits="userSpaceOnUse">
<stop stop-color="#007CC2"/>
<stop offset="1" stop-color="#16B6FF"/>
</linearGradient>
<linearGradient id="paint3_linear_5_109" x1="524" y1="716.5" x2="548.5" y2="933" gradientUnits="userSpaceOnUse">
<stop stop-color="#007CC2"/>
<stop offset="1" stop-color="#16B6FF"/>
</linearGradient>
<linearGradient id="paint4_linear_5_109" x1="549" y1="694.5" x2="634" y2="871" gradientUnits="userSpaceOnUse">
<stop stop-color="#007CC2"/>
<stop offset="1" stop-color="#16B6FF"/>
</linearGradient>
<linearGradient id="paint5_linear_5_109" x1="567.5" y1="669.5" x2="665" y2="779" gradientUnits="userSpaceOnUse">
<stop stop-color="#007CC2"/>
<stop offset="1" stop-color="#16B6FF"/>
</linearGradient>
</defs>
</svg>
