<svg width="1024" height="1024" viewBox="0 0 1024 1024" fill="none" xmlns="http://www.w3.org/2000/svg">
<path fill-rule="evenodd" clip-rule="evenodd" d="M512 194.5C535 194.5 564.29 204.845 582.537 223.681C597.854 239.491 603.163 252.412 611.312 293.717C616.344 319.223 618.636 329.996 619.905 329.996C625.341 333.62 732.029 221.467 741.381 212.537C765.342 189.655 806.071 148.429 815.024 137.996C833.016 117.029 843.646 102.355 852.491 86.274C855.83 80.2045 858.839 74.4767 861.441 67.996C870.292 45.957 872.683 42.992 881.604 43C889.678 43.007 895.388 48.612 897.362 58.471C897.915 61.235 899.029 70.696 899.836 79.496C904.949 135.251 900.823 175.989 886.107 215.046C881.916 226.172 875.753 237.488 870.5 247.996C870.713 249.278 871.727 250.989 873.154 253.896C874.73 261.097 874.9 261.982 875.733 272.496C875.556 285.954 871.435 307.996 866.404 326.996C856.739 363.496 848.302 369.964 826.181 394.724C823.228 398.029 822.403 399.775 822.401 402.724C822.394 414.335 811.844 439.931 799.208 458.996C791.758 470.237 770.921 491.761 758.904 500.629C730.411 523.934 638.405 545.112 622.405 552.996C587.905 569.996 581.442 593.568 571.459 626.75C574.777 686.094 672.013 720.835 701.443 767.614C704.215 772.021 704.03 778.61 701.011 783.054C687.287 803.25 659.901 797.13 640.253 793.589C641.278 809.881 656.943 824.975 661.904 840.996C667.366 858.633 669.171 875.434 667.409 881.978C665.688 888.368 660.225 893.51 654.206 894.405C644.644 895.826 628.785 891.019 614.579 882.394C609.001 879.008 597.904 869.496 590.845 864.996C588.904 875.996 588.165 885.813 587.868 887.868C583.282 919.576 568.445 949.259 548.678 966.271C537.482 975.907 530.358 976.399 522.324 968.091C517.904 962.996 513.031 953.689 512 952L512 194.5Z" fill="#002A4A"/>
<path d="M605.698 366.282C614.154 425.363 612.963 459.872 591.241 526C568.38 579.936 533 646 512 646L512 350V220.5C530 221 539.778 224.24 550.664 229.165C576.318 240.773 588.013 264.447 595.241 305.5C598.634 322.756 603.691 342.92 605.698 366.282Z" fill="white"/>
<path d="M605.698 366.282C614.154 425.363 612.963 459.872 591.241 526C568.38 579.936 533 646 512 646L512 350L512 408.5C512 427 590.916 458.79 592.741 389C594.741 383.5 606.241 376.5 605.698 366.282Z" fill="#00ACF1"/>
<path fill-rule="evenodd" clip-rule="evenodd" d="M512.002 194.496C489.002 194.496 459.711 204.841 441.464 223.677C426.147 239.487 420.839 252.408 412.69 293.713C407.658 319.219 405.366 329.992 404.097 329.992C398.661 333.616 291.972 221.463 282.62 212.533C258.659 189.651 217.93 148.425 208.977 137.992C190.985 117.025 180.355 102.351 171.51 86.27C168.172 80.2005 165.163 74.4728 162.56 67.992C153.709 45.953 151.318 42.988 142.397 42.996C134.323 43.003 128.613 48.608 126.639 58.467C126.086 61.231 124.972 70.692 124.165 79.492C119.052 135.247 123.178 175.985 137.894 215.042C142.086 226.168 148.248 237.484 153.502 247.992C153.289 249.274 152.275 250.985 150.847 253.892C149.271 261.093 149.102 261.979 148.268 272.492C148.445 285.95 152.566 307.992 157.597 326.992C167.262 363.492 175.7 369.96 197.82 394.72C200.773 398.025 201.598 399.771 201.6 402.72C201.607 414.331 212.157 439.927 224.793 458.992C232.243 470.233 253.08 491.757 265.097 500.625C293.59 523.93 385.597 545.108 401.597 552.992C436.097 569.992 442.56 593.564 452.543 626.746C449.224 686.09 351.989 720.831 322.558 767.61C319.786 772.017 319.971 778.606 322.99 783.05C336.715 803.246 364.1 797.126 383.748 793.585C382.724 809.877 367.059 824.971 362.097 840.992C356.635 858.629 354.83 875.43 356.592 881.974C358.313 888.364 363.776 893.506 369.795 894.401C379.357 895.822 395.217 891.015 409.423 882.39C415.001 879.004 426.097 869.492 433.156 864.992C435.097 875.992 435.837 885.809 436.134 887.864C440.72 919.572 455.557 949.255 475.324 966.267C486.52 975.903 493.643 976.395 501.677 968.087C506.097 962.992 510.971 953.685 512.002 951.996L512.002 194.496Z" fill="#002A4A"/>
<path d="M418.303 366.278C409.848 425.359 411.039 459.868 432.76 525.996C455.621 579.932 491.002 645.996 512.002 645.996L512.002 349.996V220.496C494.002 220.996 484.223 224.236 473.337 229.161C447.684 240.769 435.989 264.443 428.76 305.496C425.368 322.752 420.31 342.916 418.303 366.278Z" fill="white"/>
<path d="M418.303 366.278C409.848 425.359 411.039 459.868 432.76 525.996C455.621 579.932 491.002 645.996 512.002 645.996L512.002 349.996L512.002 408.496C512.002 426.996 433.086 458.786 431.26 388.996C429.26 383.496 417.76 376.496 418.303 366.278Z" fill="#00ACF1"/>
<path d="M504.5 719C498.991 716.572 495.931 714.574 490.5 710.5C479.765 755.216 473.487 779.355 462 823.5C457.582 844.761 456.826 856.343 458 876.5C464.416 922.636 472.171 932.439 486.5 948C492.256 921.978 494.597 906.371 497 876.5C499.831 815.7 501.527 780.825 504.5 719Z" fill="url(#paint0_linear_5_109)" stroke="#016592"/>
<path d="M443 806C422.284 842.873 409.077 858.76 379.5 869C384.979 841.186 399.239 812.347 436 747.5C448.38 723.303 455.381 709.6 467.5 686C471.615 691.812 475.31 695.571 479 699.5C466.112 746.22 458.19 768.862 443 806Z" fill="url(#paint1_linear_5_109)" stroke="#016592"/>
<path d="M376.5 746L347 772C367.86 775.727 377.972 774.322 393 764.5C406.877 752.992 414.074 745.15 426 729C438.159 708.486 444.281 698.329 458 674C455.222 671.175 453.583 669.328 450.5 665.5C440.851 676.456 432.845 685.391 426 692.5C400.753 721.835 390.206 732.344 376.737 745.763L376.5 746Z" fill="url(#paint2_linear_5_109)" stroke="#016592"/>
<path d="M517.5 719.5C523.009 717.072 526.069 715.074 531.5 711C542.235 755.716 548.513 779.855 560 824C564.418 845.261 565.174 856.843 564 877C557.584 923.136 549.829 932.939 535.5 948.5C529.744 922.478 527.403 906.871 525 877C522.169 816.2 520.473 781.325 517.5 719.5Z" fill="url(#paint3_linear_5_109)" stroke="#016592"/>
<path d="M579 806.5C599.716 843.373 612.923 859.26 642.5 869.5C637.021 841.686 622.761 812.847 586 748C573.62 723.803 566.619 710.1 554.5 686.5C550.385 692.312 546.69 696.071 543 700C555.888 746.72 563.81 769.362 579 806.5Z" fill="url(#paint4_linear_5_109)" stroke="#016592"/>
<path d="M645.5 746.5L675 772.5C654.14 776.227 644.028 774.822 629 765C615.123 753.492 607.926 745.65 596 729.5C583.841 708.986 577.719 698.829 564 674.5C566.778 671.675 568.417 669.828 571.5 666C581.149 676.956 589.155 685.891 596 693C621.247 722.335 631.794 732.844 645.263 746.263L645.5 746.5Z" fill="url(#paint5_linear_5_109)" stroke="#016592"/>
<path d="M866.333 129.219C864.334 166.99 859.995 199.086 842.206 229.571C823.906 260.933 791.296 290.714 732.021 323.123L731.774 323.257L731.635 323.499C729.308 327.517 727.705 330.77 727.185 334.022C726.655 337.328 727.256 340.529 729.096 344.427L729.144 344.529L729.214 344.618C731.527 347.562 733.748 349.577 736.686 350.878C739.597 352.167 743.121 352.713 747.962 352.899L748.207 352.908L748.429 352.804C787.661 334.175 808.55 320.23 840.961 288.884C834.514 323.627 823.878 349.587 800.454 370.897C776.301 392.872 738.449 410 677.239 426.534L677.044 426.588L676.884 426.712C671.431 430.975 669.74 437.423 671.187 444.672C671.552 447.773 673.073 450.14 675.673 451.893C678.238 453.622 681.829 454.74 686.337 455.486L686.428 455.502L686.52 455.5C708.704 455.071 734.724 445.706 782.773 423.624C767.761 452.094 748.214 471.318 721.188 485.696C693.627 500.358 658.263 509.993 611.914 519.198C620.034 491.028 623.9 474.672 627.493 444.117L627.501 444.052L627.5 443.986L627.487 443.04C627.274 427.263 627.062 411.302 628.986 399.663C630.81 388.635 632.95 382.812 634.448 378.316C634.789 377.294 636.301 374.133 638.794 369.65C641.268 365.202 644.668 359.524 648.739 353.499C656.9 341.422 667.689 328.053 679.062 320.327L679.124 320.285L679.179 320.234C701.655 299.439 720.732 280.614 738.65 262.84C756.571 245.063 773.327 228.342 791.181 211.732L791.193 211.721L791.206 211.708C815.581 187.422 840.809 163.006 866.333 129.219Z" fill="#0077BA" stroke="#0194E5" stroke-width="2"/>
<path d="M156.167 129.219C158.166 166.99 162.505 199.086 180.294 229.571C198.594 260.933 231.204 290.714 290.479 323.123L290.726 323.257L290.865 323.499C293.192 327.517 294.795 330.77 295.315 334.022C295.845 337.328 295.244 340.529 293.404 344.427L293.356 344.529L293.286 344.618C290.973 347.562 288.752 349.577 285.814 350.878C282.903 352.167 279.379 352.713 274.538 352.899L274.293 352.908L274.071 352.804C234.839 334.175 213.95 320.23 181.539 288.884C187.985 323.627 198.622 349.587 222.046 370.897C246.199 392.872 284.051 410 345.261 426.534L345.456 426.588L345.616 426.712C351.069 430.975 352.759 437.423 351.313 444.672C350.948 447.773 349.427 450.14 346.827 451.893C344.262 453.622 340.671 454.74 336.163 455.486L336.072 455.502L335.98 455.5C313.795 455.071 287.776 445.706 239.727 423.624C254.739 452.094 274.286 471.318 301.312 485.696C328.873 500.358 364.237 509.993 410.586 519.198C402.466 491.028 398.6 474.672 395.007 444.117L394.999 444.052L395 443.986L395.013 443.04C395.226 427.263 395.438 411.302 393.514 399.663C391.69 388.635 389.55 382.812 388.052 378.316C387.711 377.294 386.199 374.133 383.706 369.65C381.232 365.202 377.832 359.524 373.761 353.499C365.6 341.422 354.811 328.053 343.438 320.327L343.376 320.285L343.321 320.234C320.845 299.439 301.768 280.614 283.85 262.84C265.928 245.063 249.173 228.342 231.319 211.732L231.307 211.721L231.294 211.708C206.919 187.422 181.691 163.006 156.167 129.219Z" fill="#0077BA" stroke="#0194E5" stroke-width="2"/>
<path d="M745 353.5C724.5 364.5 694.6 393.684 680 424.5C724.256 415.74 745.954 406.821 782 387.5C826.747 354.937 834.89 331.414 841.5 287C823.825 304.06 805.635 319.726 787.5 330.5C771.045 341.232 754.895 348.191 745 353.5Z" fill="#00A9F0" stroke="#02C8FA" stroke-width="2"/>
<path d="M277.5 353.5C298 364.5 327.9 393.684 342.5 424.5C298.244 415.74 276.546 406.821 240.5 387.5C195.753 354.937 187.61 331.414 181 287C198.675 304.06 216.865 319.726 235 330.5C251.455 341.232 267.605 348.191 277.5 353.5Z" fill="#00A9F0" stroke="#02C8FA" stroke-width="2"/>
<path d="M459 286.5C452.126 286.5 446.5 292.126 446.5 299C446.5 305.874 452.126 311.5 459 311.5C465.874 311.5 471.5 305.874 471.5 299C471.5 292.126 465.874 286.5 459 286.5Z" fill="#092C47" stroke="black"/>
<path d="M564 286.5C570.874 286.5 576.5 292.126 576.5 299C576.5 305.874 570.874 311.5 564 311.5C557.126 311.5 551.5 305.874 551.5 299C551.5 292.126 557.126 286.5 564 286.5Z" fill="#092C47" stroke="black"/>
<path fill-rule="evenodd" clip-rule="evenodd" d="M563 297C564.65 297 566 295.65 566 294C566 292.35 564.65 291 563 291C561.35 291 560 292.35 560 294C560 295.65 561.35 297 563 297Z" fill="white"/>
<path fill-rule="evenodd" clip-rule="evenodd" d="M459 297C460.65 297 462 295.65 462 294C462 292.35 460.65 291 459 291C457.35 291 456 292.35 456 294C456 295.65 457.35 297 459 297Z" fill="white"/>
<path d="M512 294.5C514.237 294.5 515.792 294.607 517.285 294.959C518.778 295.311 520.237 295.916 522.274 296.946C526.043 298.853 528.437 300.694 530.219 303.097C532.008 305.51 533.208 308.528 534.521 312.85C535.507 316.093 536.043 318.416 536.211 321.065C536.379 323.724 536.177 326.731 535.657 331.345C533.895 346.98 529.249 363.61 523.336 375.478C520.814 380.539 518.505 384.842 516.52 387.875C515.526 389.393 514.626 390.573 513.833 391.368C513.016 392.188 512.409 392.5 512 392.5C511.62 392.5 511.04 392.246 510.259 391.609C509.499 390.99 508.626 390.073 507.675 388.901C505.774 386.561 503.604 383.26 501.439 379.447C497.11 371.82 492.842 362.213 490.828 354.278C489.121 347.553 488.021 339.203 487.645 331.515C487.267 323.81 487.621 316.839 488.782 312.844C490.857 305.707 493.834 300.447 500.727 296.945C504.398 295.08 507.558 294.5 512 294.5Z" fill="#0C2D47" stroke="#051328"/>
<path d="M528.433 333.901C524.739 356.927 521.634 367.332 512 383C502 366.769 497.623 355.695 494.433 333.901C500.028 328.426 504.844 326.931 512 326.5C520.597 326.446 523.384 328.341 528.433 333.901Z" fill="#FDAD29" stroke="#FFE31F"/>
<path d="M528.933 324.401C523.89 320.642 519.518 319.911 512 319C504.224 320.1 499.833 321.21 493.933 324.401C494.683 307.468 499.5 300.5 512 300.5C524.5 300.5 530.168 309.185 528.933 324.401Z" fill="#0088CB" stroke="#06B0F9"/>
<path d="M502.933 307.401C503.233 307.401 503.606 307.511 504.015 307.733C504.419 307.953 504.83 308.267 505.198 308.636C505.567 309.004 505.881 309.415 506.101 309.819C506.323 310.228 506.433 310.601 506.433 310.901C506.433 312.275 505.307 313.401 503.933 313.401C503.632 313.401 503.26 313.292 502.851 313.069C502.446 312.849 502.035 312.535 501.667 312.167C501.299 311.799 500.985 311.388 500.765 310.983C500.542 310.574 500.433 310.202 500.433 309.901C500.433 308.527 501.559 307.401 502.933 307.401Z" fill="black" stroke="#06B0F9"/>
<path d="M520.933 307.401C520.632 307.401 520.26 307.511 519.851 307.733C519.446 307.953 519.035 308.267 518.667 308.636C518.299 309.004 517.985 309.415 517.765 309.819C517.542 310.228 517.433 310.601 517.433 310.901C517.433 312.275 518.559 313.401 519.933 313.401C520.233 313.401 520.606 313.292 521.015 313.069C521.419 312.849 521.83 312.535 522.198 312.167C522.567 311.799 522.881 311.388 523.101 310.983C523.323 310.574 523.433 310.202 523.433 309.901C523.433 308.527 522.307 307.401 520.933 307.401Z" fill="black" stroke="#06B0F9"/>
<path d="M445.142 333.009C449.298 330.858 453.855 331.15 456.172 333.467C457.01 334.305 457.453 334.974 457.669 335.912C457.865 336.765 457.881 337.868 457.758 339.559L457.696 340.321C457.404 343.699 455.804 348.479 453.616 353.078C451.429 357.674 448.693 362.012 446.179 364.526C444.462 366.242 443.316 367.221 442.217 367.783C441.141 368.332 440.073 368.5 438.468 368.5C435.848 368.5 433.889 367.794 432.044 366.204C430.803 365.135 430.195 364.451 429.866 363.447C429.523 362.4 429.468 360.966 429.515 358.341C429.601 353.46 431.343 348.241 434.16 343.675C436.977 339.109 440.846 335.233 445.142 333.009Z" fill="#00A9F1" stroke="#028EEB"/>
<path d="M572.457 331.502C574.742 331.562 577.337 332.495 579.939 334.157C585.141 337.48 590.243 343.635 592.778 351.06C594.401 355.817 594.285 360.209 592.887 363.382C591.498 366.534 588.844 368.5 585.274 368.5C582.614 368.5 579.646 366.898 576.778 363.95C573.921 361.013 571.222 356.795 569.104 351.708C566.875 346.353 565.662 342.731 565.329 340.037C565 337.385 565.526 335.661 566.789 334.056C568.221 332.236 570.19 331.441 572.457 331.502Z" fill="#00A9F1" stroke="#028EEB"/>
<path d="M450.458 382.5C451.796 382.5 453.431 383.43 454.889 384.978C456.331 386.508 457.511 388.554 457.972 390.604C458.856 394.538 458.235 398.544 456.675 401.553C455.109 404.572 452.655 406.5 449.901 406.5C448.082 406.5 446.525 405.561 445.298 403.987C444.067 402.408 443.195 400.214 442.777 397.806C441.938 392.96 442.972 387.488 446.287 384.629C446.971 384.039 447.8 383.498 448.581 383.107C449.381 382.707 450.06 382.5 450.458 382.5Z" fill="#0B2D49" stroke="#040C16"/>
<path d="M568.808 385.204C570.953 383.059 573.051 382.341 574.847 382.76C576.655 383.181 578.349 384.794 579.581 387.741C581.774 392.991 581.084 398.672 578.957 402.336C577.893 404.167 576.497 405.452 574.972 405.967C573.472 406.473 571.771 406.26 570.003 404.951C567.117 402.815 565.492 399.204 565.261 395.433C565.031 391.663 566.202 387.81 568.808 385.204Z" fill="#0B2D49" stroke="#040C16"/>
<path d="M470.837 397.328C473.06 395.106 475.76 394.957 478.038 396.283C480.343 397.626 482.258 400.515 482.7 404.434C483.175 408.644 482.655 411.925 481.344 414.133C480.053 416.309 477.962 417.5 475.113 417.5C472.975 417.5 471.421 416.841 470.317 415.512C469.192 414.157 468.478 412.041 468.187 409.016C467.608 402.991 468.411 399.754 470.837 397.328Z" fill="#0B2D49" stroke="#040C16"/>
<path d="M547.68 395.658L548.18 395.694C552.475 396.063 555.23 400.339 555.805 405.27C556.378 410.19 554.722 415.352 550.636 417.301C549.824 417.688 549.221 417.965 548.724 418.139C548.233 418.313 547.881 418.374 547.57 418.353C546.937 418.312 546.332 417.936 544.997 416.948C542.403 415.029 540.812 411.639 540.426 407.997C540.04 404.357 540.867 400.558 542.992 397.857C543.813 396.813 544.445 396.246 545.168 395.943C545.804 395.677 546.563 395.594 547.68 395.658Z" fill="#0B2D49" stroke="#040C16"/>
<defs>
<linearGradient id="paint0_linear_5_109" x1="498" y1="716" x2="473.5" y2="932.5" gradientUnits="userSpaceOnUse">
<stop stop-color="#007CC2"/>
<stop offset="1" stop-color="#16B6FF"/>
</linearGradient>
<linearGradient id="paint1_linear_5_109" x1="473" y1="694" x2="388" y2="870.5" gradientUnits="userSpaceOnUse">
<stop stop-color="#007CC2"/>
<stop offset="1" stop-color="#16B6FF"/>
</linearGradient>
<linearGradient id="paint2_linear_5_109" x1="454.5" y1="669" x2="357" y2="778.5" gradientUnits="userSpaceOnUse">
<stop stop-color="#007CC2"/>
<stop offset="1" stop-color="#16B6FF"/>
</linearGradient>
<linearGradient id="paint3_linear_5_109" x1="524" y1="716.5" x2="548.5" y2="933" gradientUnits="userSpaceOnUse">
<stop stop-color="#007CC2"/>
<stop offset="1" stop-color="#16B6FF"/>
</linearGradient>
<linearGradient id="paint4_linear_5_109" x1="549" y1="694.5" x2="634" y2="871" gradientUnits="userSpaceOnUse">
<stop stop-color="#007CC2"/>
<stop offset="1" stop-color="#16B6FF"/>
</linearGradient>
<linearGradient id="paint5_linear_5_109" x1="567.5" y1="669.5" x2="665" y2="779" gradientUnits="userSpaceOnUse">
<stop stop-color="#007CC2"/>
<stop offset="1" stop-color="#16B6FF"/>
</linearGradient>
</defs>
</svg>
